<svg width="512" height="512" version="1.1" xmlns="http://www.w3.org/2000/svg" desc="Created with imagetracer.js version 1.2.6" ><path fill="rgb(69,111,89)" stroke="rgb(69,111,89)" stroke-width="1" opacity="0.9921568627450981" d="M 140.5 118 L 283.5 118 Q 284.6 118.1 284 123.5 L 286 134 L 140.5 134 L 134 129.5 L 133 125.5 L 137.5 119 L 140.5 118 Z " /><path fill="rgb(69,111,89)" stroke="rgb(69,111,89)" stroke-width="1" opacity="0.9921568627450981" d="M 138.5 164 L 297.5 164 L 300 166.5 L 308 178.5 L 138.5 179 L 135 176.5 L 133 171.5 L 135 166 L 138.5 164 Z " /><path fill="rgb(69,111,89)" stroke="rgb(69,111,89)" stroke-width="1" opacity="0.9921568627450981" d="M 140.5 209 L 348.5 209 Q 360.6 216.2 378 217 Q 379 222.6 374.5 224 L 371.5 225 L 140.5 225 L 134 220.5 L 133 216.5 L 137.5 210 L 140.5 209 Z " /><path fill="rgb(69,111,89)" stroke="rgb(69,111,89)" stroke-width="1" opacity="0.9921568627450981" d="M 138.5 255 L 373.5 255 L 377 257 L 379 262.5 L 375.5 269 L 373.5 270 L 138.5 270 L 135 267.5 L 133 262.5 L 135 257 L 138.5 255 Z " /><path fill="rgb(73,213,133)" stroke="rgb(73,213,133)" stroke-width="1" opacity="0.996078431372549" d="M 384.5 0 L 399.5 0 L 400.5 1 L 402.5 1 L 409.5 1 L 423.5 4 L 448.5 15 Q 465 25 477 39.5 L 487 53.5 L 498 78.5 L 502 99.5 L 502 119.5 L 498 140.5 L 489 162.5 Q 478.4 179.9 463.5 193 Q 450.9 203.9 434.5 211 L 409.5 218 L 385.5 219 L 363.5 215 L 338.5 205 Q 320.7 194.8 308 179.5 L 297 163.5 L 287 139.5 L 283 116.5 L 283 102.5 L 287 79.5 L 294 61.5 Q 303.6 42.6 318.5 29 L 322 26.5 L 323.5 24 L 339.5 13 L 355.5 6 L 370.5 2 L 383.5 1 L 384.5 0 Z M 439 51 L 433 53 L 390 154 L 356 114 L 349 107 L 343 108 L 338 115 L 341 122 L 383 172 L 390 177 L 395 177 Q 400 173 402 167 L 447 61 L 446 56 Q 444 51 439 51 Z " /><path fill="rgb(0,0,0)" stroke="rgb(0,0,0)" stroke-width="1" opacity="0" d="M 0 0 L 243 0.5 L 232.5 2 L 220.5 6 Q 203.1 13.6 190.5 26 L 105.5 26 Q 82.1 30.6 70 46.5 Q 61.2 56.7 58 72.5 L 58 137 L 0.5 184 L 0 0 Z " /><path fill="rgb(0,0,0)" stroke="rgb(0,0,0)" stroke-width="1" opacity="0" d="M 269.5 0 L 384 0.5 Q 343.9 4.4 321.5 26 L 303.5 12 L 288.5 5 L 279.5 2 L 269.5 1 L 269.5 0 Z " /><path fill="rgb(0,0,0)" stroke="rgb(0,0,0)" stroke-width="1" opacity="0" d="M 402.5 0 L 512 0 L 512 183.5 L 509.5 182 L 488 164.5 Q 496 150.5 500 132.5 L 501 120.5 L 502 119.5 L 502 99.5 L 498 78.5 L 487 53.5 Q 477 37 462.5 25 Q 450.4 14.6 434.5 8 Q 421.3 1.7 402.5 1 L 402.5 0 Z " /><path fill="rgb(0,0,0)" stroke="rgb(0,0,0)" stroke-width="1" opacity="0" d="M 0.5 473 L 5 486.5 L 15 500 L 32.5 510 L 39 511.5 L 0 512 L 0.5 473 Z " /><path fill="rgb(0,0,0)" stroke="rgb(0,0,0)" stroke-width="1" opacity="0" d="M 511.5 473 L 512 512 L 473 511.5 Q 492.9 506.9 503 492.5 Q 509.4 484.9 511.5 473 Z " /><path fill="rgb(192,218,220)" stroke="rgb(192,218,220)" stroke-width="1" opacity="0.996078431372549" d="M 321.5 26 L 319.5 29 L 321.5 26 Z " /><path fill="rgb(192,218,220)" stroke="rgb(192,218,220)" stroke-width="1" opacity="0.996078431372549" d="M 310.5 37 L 307.5 41 L 310.5 37 Z " /><path fill="rgb(192,218,220)" stroke="rgb(192,218,220)" stroke-width="1" opacity="0.996078431372549" d="M 305.5 43 L 304.5 45 L 305.5 43 Z " /><path fill="rgb(192,218,220)" stroke="rgb(192,218,220)" stroke-width="1" opacity="0.996078431372549" d="M 302.5 47 L 301.5 49 L 302.5 47 Z " /><path fill="rgb(192,218,220)" stroke="rgb(192,218,220)" stroke-width="1" opacity="0.996078431372549" d="M 446.5 58 L 447 60.5 L 446 60.5 L 446.5 58 Z " /><path fill="rgb(192,218,220)" stroke="rgb(192,218,220)" stroke-width="1" opacity="0.996078431372549" d="M 283.5 97 L 284 101.5 L 283 101.5 L 283.5 97 Z " /><path fill="rgb(192,218,220)" stroke="rgb(192,218,220)" stroke-width="1" opacity="0.996078431372549" d="M 353.5 111 L 355.5 114 L 353.5 111 Z " /><path fill="rgb(192,218,220)" stroke="rgb(192,218,220)" stroke-width="1" opacity="0.996078431372549" d="M 358.5 117 L 360.5 120 L 358.5 117 Z " /><path fill="rgb(192,218,220)" stroke="rgb(192,218,220)" stroke-width="1" opacity="0.996078431372549" d="M 136.5 119 L 134.5 122 L 136.5 119 Z " /><path fill="rgb(192,218,220)" stroke="rgb(192,218,220)" stroke-width="1" opacity="0.996078431372549" d="M 341.5 121 L 343.5 124 L 341.5 121 Z " /><path fill="rgb(192,218,220)" stroke="rgb(192,218,220)" stroke-width="1" opacity="0.996078431372549" d="M 364.5 124 L 365.5 126 L 364.5 124 Z " /><path fill="rgb(192,218,220)" stroke="rgb(192,218,220)" stroke-width="1" opacity="0.996078431372549" d="M 346.5 127 L 348.5 130 L 346.5 127 Z " /><path fill="rgb(192,218,220)" stroke="rgb(192,218,220)" stroke-width="1" opacity="0.996078431372549" d="M 134.5 130 L 136.5 133 L 134.5 130 Z " /><path fill="rgb(192,218,220)" stroke="rgb(192,218,220)" stroke-width="1" opacity="0.996078431372549" d="M 369.5 130 L 371.5 133 L 369.5 130 Z " /><path fill="rgb(192,218,220)" stroke="rgb(192,218,220)" stroke-width="1" opacity="0.996078431372549" d="M 352.5 134 L 353.5 136 L 352.5 134 Z " /><path fill="rgb(192,218,220)" stroke="rgb(192,218,220)" stroke-width="1" opacity="0.996078431372549" d="M 374.5 136 L 376.5 139 L 374.5 136 Z " /><path fill="rgb(192,218,220)" stroke="rgb(192,218,220)" stroke-width="1" opacity="0.996078431372549" d="M 357.5 140 L 359.5 143 L 357.5 140 Z " /><path fill="rgb(192,218,220)" stroke="rgb(192,218,220)" stroke-width="1" opacity="0.996078431372549" d="M 379.5 142 L 381.5 145 L 379.5 142 Z " /><path fill="rgb(192,218,220)" stroke="rgb(192,218,220)" stroke-width="1" opacity="0.996078431372549" d="M 362.5 146 L 364.5 149 L 362.5 146 Z " /><path fill="rgb(192,218,220)" stroke="rgb(192,218,220)" stroke-width="1" opacity="0.996078431372549" d="M 385.5 149 L 386.5 151 L 385.5 149 Z " /><path fill="rgb(192,218,220)" stroke="rgb(192,218,220)" stroke-width="1" opacity="0.996078431372549" d="M 367.5 152 L 369.5 155 L 367.5 152 Z " /><path fill="rgb(192,218,220)" stroke="rgb(192,218,220)" stroke-width="1" opacity="0.996078431372549" d="M 373.5 159 L 374.5 161 L 373.5 159 Z " /><path fill="rgb(192,218,220)" stroke="rgb(192,218,220)" stroke-width="1" opacity="0.996078431372549" d="M 296.5 162 L 297 164 L 140 163.5 L 295.5 163 L 296.5 162 Z " /><path fill="rgb(192,218,220)" stroke="rgb(192,218,220)" stroke-width="1" opacity="0.996078431372549" d="M 378.5 165 L 380.5 168 L 378.5 165 Z " /><path fill="rgb(192,218,220)" stroke="rgb(192,218,220)" stroke-width="1" opacity="0.996078431372549" d="M 134.5 167 L 134 168.5 L 133.5 170 L 133 168.5 L 134.5 167 Z " /><path fill="rgb(192,218,220)" stroke="rgb(192,218,220)" stroke-width="1" opacity="0.996078431372549" d="M 383.5 171 L 387.5 176 L 383.5 171 Z " /><path fill="rgb(192,218,220)" stroke="rgb(192,218,220)" stroke-width="1" opacity="0.996078431372549" d="M 140.5 179 L 308 179.5 L 140.5 180 L 140.5 179 Z " /><path fill="rgb(192,218,220)" stroke="rgb(192,218,220)" stroke-width="1" opacity="0.996078431372549" d="M 312.5 184 L 317.5 190 L 312.5 184 Z " /><path fill="rgb(192,218,220)" stroke="rgb(192,218,220)" stroke-width="1" opacity="0.996078431372549" d="M 323.5 194 L 324.5 196 L 323.5 194 Z " /><path fill="rgb(192,218,220)" stroke="rgb(192,218,220)" stroke-width="1" opacity="0.996078431372549" d="M 327.5 197 L 328.5 199 L 327.5 197 Z " /><path fill="rgb(192,218,220)" stroke="rgb(192,218,220)" stroke-width="1" opacity="0.996078431372549" d="M 58.5 199 L 132.5 261 L 134.5 258 L 134 259.5 L 133 263.5 L 137.5 270 L 142.5 271 L 143.5 270 L 368.5 270 L 370.5 271 L 374.5 270 L 378 266.5 L 379 261.5 L 378.5 260 Q 380 262.5 381.5 259 L 444 207.5 L 443.5 206 L 445 206.5 Q 444.3 204.3 446.5 205 L 453.5 200 L 454 233.5 L 304.5 357 Q 293 364 278.5 368 L 267.5 370 L 244.5 370 L 226.5 366 Q 212.3 361.2 201.5 353 L 58 233.5 L 58.5 199 Z M 146 271 L 148 274 L 207 322 L 225 331 L 247 336 L 273 335 Q 288 332 301 325 L 317 314 L 367 272 L 146 271 Z " /><path fill="rgb(192,218,220)" stroke="rgb(192,218,220)" stroke-width="1" opacity="0.996078431372549" d="M 136.5 210 L 134.5 213 L 136.5 210 Z " /><path fill="rgb(192,218,220)" stroke="rgb(192,218,220)" stroke-width="1" opacity="0.996078431372549" d="M 380.5 218 L 385 218.5 L 380.5 219 L 380.5 218 Z " /><path fill="rgb(192,218,220)" stroke="rgb(192,218,220)" stroke-width="1" opacity="0.996078431372549" d="M 134.5 221 L 136.5 224 L 134.5 221 Z " /><path fill="rgb(192,218,220)" stroke="rgb(192,218,220)" stroke-width="1" opacity="0.996078431372549" d="M 377.5 221 L 375.5 224 L 377.5 221 Z " /><path fill="rgb(192,218,220)" stroke="rgb(192,218,220)" stroke-width="1" opacity="0.996078431372549" d="M 140.5 254 L 372 254.5 L 140.5 255 L 140.5 254 Z " /><path fill="rgb(251,163,44)" stroke="rgb(251,163,44)" stroke-width="1" opacity="0.5372549019607843" d="M 243.5 0 L 250 0.5 L 243.5 1 L 243.5 0 Z " /><path fill="rgb(251,163,44)" stroke="rgb(251,163,44)" stroke-width="1" opacity="0.5372549019607843" d="M 262.5 0 L 269 0.5 L 262.5 1 L 262.5 0 Z " /><path fill="rgb(251,163,44)" stroke="rgb(251,163,44)" stroke-width="1" opacity="0.5372549019607843" d="M 237.5 1 L 241 1.5 L 237.5 2 L 237.5 1 Z " /><path fill="rgb(251,163,44)" stroke="rgb(251,163,44)" stroke-width="1" opacity="0.5372549019607843" d="M 271.5 1 L 275 1.5 L 271.5 2 L 271.5 1 Z " /><path fill="rgb(251,163,44)" stroke="rgb(251,163,44)" stroke-width="1" opacity="0.5372549019607843" d="M 232.5 2 L 236 2.5 L 229.5 4 L 229.5 3 L 232.5 2 Z " /><path fill="rgb(251,163,44)" stroke="rgb(251,163,44)" stroke-width="1" opacity="0.5372549019607843" d="M 276.5 2 L 286 4.5 L 283.5 5 L 276.5 3 L 276.5 2 Z " /><path fill="rgb(251,163,44)" stroke="rgb(251,163,44)" stroke-width="1" opacity="0.5372549019607843" d="M 223.5 5 L 225 5.5 Q 205 12.5 191.5 26 L 194.5 22 Q 206.7 11.2 223.5 5 Z " /><path fill="rgb(251,163,44)" stroke="rgb(251,163,44)" stroke-width="1" opacity="0.5372549019607843" d="M 287.5 5 L 291 6.5 L 289.5 7 L 287.5 5 Z " /><path fill="rgb(251,163,44)" stroke="rgb(251,163,44)" stroke-width="1" opacity="0.5372549019607843" d="M 292.5 7 Q 309.6 13.4 321 25.5 L 318.5 24 Q 307.8 13.7 292.5 8 L 292.5 7 Z " /><path fill="rgb(251,163,44)" stroke="rgb(251,163,44)" stroke-width="1" opacity="0.5372549019607843" d="M 56.5 137 L 58 137.5 L 0.5 185 L 2.5 182 L 56.5 137 Z " /><path fill="rgb(251,163,44)" stroke="rgb(251,163,44)" stroke-width="1" opacity="0.5372549019607843" d="M 487.5 164 L 512 184.5 L 509.5 183 L 491.5 169 L 487.5 164 Z " /><path fill="rgb(251,163,44)" stroke="rgb(251,163,44)" stroke-width="1" opacity="0.5372549019607843" d="M 0.5 469 L 1 472.5 L 0 472.5 L 0.5 469 Z " /><path fill="rgb(251,163,44)" stroke="rgb(251,163,44)" stroke-width="1" opacity="0.5372549019607843" d="M 511.5 469 L 512 472.5 L 511 472.5 L 511.5 469 Z " /><path fill="rgb(251,163,44)" stroke="rgb(251,163,44)" stroke-width="1" opacity="0.5372549019607843" d="M 510.5 474 L 511 476.5 L 510 476.5 L 510.5 474 Z " /><path fill="rgb(251,163,44)" stroke="rgb(251,163,44)" stroke-width="1" opacity="0.5372549019607843" d="M 3.5 481 L 7 487.5 L 5 486.5 L 3.5 481 Z " /><path fill="rgb(251,163,44)" stroke="rgb(251,163,44)" stroke-width="1" opacity="0.5372549019607843" d="M 507.5 483 L 508 484.5 L 505.5 488 L 506 486.5 L 507.5 483 Z " /><path fill="rgb(251,163,44)" stroke="rgb(251,163,44)" stroke-width="1" opacity="0.5372549019607843" d="M 7.5 489 L 15 497.5 L 8 491.5 L 7.5 489 Z " /><path fill="rgb(251,163,44)" stroke="rgb(251,163,44)" stroke-width="1" opacity="0.5372549019607843" d="M 504.5 489 L 503.5 491 L 504.5 489 Z " /><path fill="rgb(251,163,44)" stroke="rgb(251,163,44)" stroke-width="1" opacity="0.5372549019607843" d="M 502.5 492 L 492.5 503 L 489.5 505 L 491.5 502 L 502.5 492 Z " /><path fill="rgb(251,163,44)" stroke="rgb(251,163,44)" stroke-width="1" opacity="0.5372549019607843" d="M 15.5 499 L 20 502.5 L 16.5 500 L 15.5 499 Z " /><path fill="rgb(251,163,44)" stroke="rgb(251,163,44)" stroke-width="1" opacity="0.5372549019607843" d="M 21.5 503 L 22.5 505 L 21.5 503 Z " /><path fill="rgb(251,163,44)" stroke="rgb(251,163,44)" stroke-width="1" opacity="0.5372549019607843" d="M 477.5 509 L 480 509.5 L 477.5 510 L 477.5 509 Z " /><path fill="rgb(251,163,44)" stroke="rgb(251,163,44)" stroke-width="1" opacity="0.5372549019607843" d="M 39.5 511 L 44 511.5 L 39.5 512 L 39.5 511 Z " /><path fill="rgb(251,163,44)" stroke="rgb(251,163,44)" stroke-width="1" opacity="0.5372549019607843" d="M 467.5 511 L 473 511.5 L 467.5 512 L 467.5 511 Z " /><path fill="rgb(229,245,247)" stroke="rgb(229,245,247)" stroke-width="1" opacity="0.996078431372549" d="M 105.5 26 L 191 26.5 L 105.5 27 Q 82.1 32.1 70 48.5 Q 63.1 56.1 60.5 68 L 60 65.5 Q 65.5 48 78.5 38 L 87.5 32 L 105.5 26 Z " /><path fill="rgb(229,245,247)" stroke="rgb(229,245,247)" stroke-width="1" opacity="0.996078431372549" d="M 436.5 52 L 441.5 52 L 446 56.5 L 446 62.5 L 401 167.5 L 395.5 176 L 388.5 176 L 382 169.5 L 340 119.5 L 339 112.5 L 341.5 109 L 349.5 108 L 389.5 154 L 431 57.5 L 434.5 53 L 436.5 52 Z " /><path fill="rgb(229,245,247)" stroke="rgb(229,245,247)" stroke-width="1" opacity="0.996078431372549" d="M 59.5 69 L 60 71.5 L 59 72.5 L 58.5 82 L 58 72.5 L 59.5 69 Z " /><path fill="rgb(228,245,247)" stroke="rgb(228,245,247)" stroke-width="1" opacity="1" d="M 191.5 26 L 321 26.5 Q 300.6 43.1 290 69.5 L 283 97.5 L 283 118 L 138.5 118 L 134 121.5 L 133 128.5 L 136.5 133 L 138.5 134 L 286 134 L 287 141.5 L 296 163 L 140.5 163 L 133 168.5 L 133 174.5 L 135 178 L 140.5 180 L 308.5 180 L 312 183.5 L 317.5 190 Q 329.3 201.2 345 208.5 L 138.5 209 L 134 212.5 L 133 219.5 L 136.5 224 L 138.5 225 L 373.5 225 L 378 221.5 L 379.5 218 L 380.5 219 L 404.5 219 L 420.5 216 L 444.5 206 L 442.5 209 L 379.5 261 L 374.5 255 L 371.5 254 L 140.5 254 L 133 259.5 L 132.5 261 L 58 198.5 L 58 82.5 L 59 81.5 L 59 72.5 Q 64.5 50 80.5 38 Q 90.3 29.8 105.5 27 L 190.5 27 L 191.5 26 Z " /><path fill="rgb(228,245,247)" stroke="rgb(228,245,247)" stroke-width="1" opacity="1" d="M 443.5 53 L 444.5 55 L 443.5 53 Z " /><path fill="rgb(228,245,247)" stroke="rgb(228,245,247)" stroke-width="1" opacity="1" d="M 351.5 109 L 352.5 111 L 351.5 109 Z " /><path fill="rgb(228,245,247)" stroke="rgb(228,245,247)" stroke-width="1" opacity="1" d="M 145.5 271 L 367 271.5 L 316.5 314 L 300.5 325 Q 288.1 331.6 272.5 335 L 246.5 336 L 224.5 331 L 206.5 322 L 147.5 274 L 145.5 271 Z " /><path fill="rgb(250,160,40)" stroke="rgb(250,160,40)" stroke-width="1" opacity="0.996078431372549" d="M 250.5 0 L 262 0.5 L 250.5 1 L 250.5 0 Z " /><path fill="rgb(250,160,40)" stroke="rgb(250,160,40)" stroke-width="1" opacity="0.996078431372549" d="M 208.5 13 L 207.5 15 L 208.5 13 Z " /><path fill="rgb(250,160,40)" stroke="rgb(250,160,40)" stroke-width="1" opacity="0.996078431372549" d="M 303.5 13 L 304.5 15 L 303.5 13 Z " /><path fill="rgb(250,160,40)" stroke="rgb(250,160,40)" stroke-width="1" opacity="0.996078431372549" d="M 202.5 17 L 201.5 19 L 202.5 17 Z " /><path fill="rgb(250,160,40)" stroke="rgb(250,160,40)" stroke-width="1" opacity="0.996078431372549" d="M 309.5 17 L 310.5 19 L 309.5 17 Z " /><path fill="rgb(250,160,40)" stroke="rgb(250,160,40)" stroke-width="1" opacity="0.996078431372549" d="M 198.5 20 L 197.5 22 L 198.5 20 Z " /><path fill="rgb(250,160,40)" stroke="rgb(250,160,40)" stroke-width="1" opacity="0.996078431372549" d="M 313.5 20 L 315.5 23 L 313.5 20 Z " /><path fill="rgb(250,160,40)" stroke="rgb(250,160,40)" stroke-width="1" opacity="0.996078431372549" d="M 193.5 24 L 192.5 26 L 193.5 24 Z " /><path fill="rgb(250,160,40)" stroke="rgb(250,160,40)" stroke-width="1" opacity="0.996078431372549" d="M 318.5 24 L 319.5 26 L 318.5 24 Z " /><path fill="rgb(250,160,40)" stroke="rgb(250,160,40)" stroke-width="1" opacity="0.996078431372549" d="M 56.5 138 L 53.5 142 L 56.5 138 Z " /><path fill="rgb(250,160,40)" stroke="rgb(250,160,40)" stroke-width="1" opacity="0.996078431372549" d="M 50.5 143 L 47.5 147 L 50.5 143 Z " /><path fill="rgb(250,160,40)" stroke="rgb(250,160,40)" stroke-width="1" opacity="0.996078431372549" d="M 44.5 148 L 41.5 152 L 44.5 148 Z " /><path fill="rgb(250,160,40)" stroke="rgb(250,160,40)" stroke-width="1" opacity="0.996078431372549" d="M 38.5 153 L 35.5 157 L 38.5 153 Z " /><path fill="rgb(250,160,40)" stroke="rgb(250,160,40)" stroke-width="1" opacity="0.996078431372549" d="M 32.5 158 L 29.5 162 L 32.5 158 Z " /><path fill="rgb(250,160,40)" stroke="rgb(250,160,40)" stroke-width="1" opacity="0.996078431372549" d="M 26.5 163 L 23.5 167 L 26.5 163 Z " /><path fill="rgb(250,160,40)" stroke="rgb(250,160,40)" stroke-width="1" opacity="0.996078431372549" d="M 486.5 165 L 489 166.5 L 487.5 166 L 486.5 165 Z " /><path fill="rgb(250,160,40)" stroke="rgb(250,160,40)" stroke-width="1" opacity="0.996078431372549" d="M 20.5 168 L 17.5 172 L 20.5 168 Z " /><path fill="rgb(250,160,40)" stroke="rgb(250,160,40)" stroke-width="1" opacity="0.996078431372549" d="M 492.5 169 L 494.5 172 L 492.5 169 Z " /><path fill="rgb(250,160,40)" stroke="rgb(250,160,40)" stroke-width="1" opacity="0.996078431372549" d="M 483.5 170 L 482.5 172 L 483.5 170 Z " /><path fill="rgb(250,160,40)" stroke="rgb(250,160,40)" stroke-width="1" opacity="0.996078431372549" d="M 14.5 173 L 11.5 177 L 14.5 173 Z " /><path fill="rgb(250,160,40)" stroke="rgb(250,160,40)" stroke-width="1" opacity="0.996078431372549" d="M 481.5 173 L 480.5 175 L 481.5 173 Z " /><path fill="rgb(250,160,40)" stroke="rgb(250,160,40)" stroke-width="1" opacity="0.996078431372549" d="M 498.5 174 L 500.5 177 L 498.5 174 Z " /><path fill="rgb(250,160,40)" stroke="rgb(250,160,40)" stroke-width="1" opacity="0.996078431372549" d="M 478.5 177 L 476.5 180 L 478.5 177 Z " /><path fill="rgb(250,160,40)" stroke="rgb(250,160,40)" stroke-width="1" opacity="0.996078431372549" d="M 8.5 178 L 5.5 182 L 8.5 178 Z " /><path fill="rgb(250,160,40)" stroke="rgb(250,160,40)" stroke-width="1" opacity="0.996078431372549" d="M 504.5 179 L 506.5 182 L 504.5 179 Z " /><path fill="rgb(250,160,40)" stroke="rgb(250,160,40)" stroke-width="1" opacity="0.996078431372549" d="M 2.5 183 L 0.5 186 L 2.5 183 Z " /><path fill="rgb(250,160,40)" stroke="rgb(250,160,40)" stroke-width="1" opacity="0.996078431372549" d="M 473.5 183 L 465.5 192 L 473.5 183 Z " /><path fill="rgb(250,160,40)" stroke="rgb(250,160,40)" stroke-width="1" opacity="0.996078431372549" d="M 509.5 183 L 511.5 186 L 509.5 183 Z " /><path fill="rgb(250,160,40)" stroke="rgb(250,160,40)" stroke-width="1" opacity="0.996078431372549" d="M 461.5 194 L 459.5 197 L 461.5 194 Z " /><path fill="rgb(250,160,40)" stroke="rgb(250,160,40)" stroke-width="1" opacity="0.996078431372549" d="M 457.5 197 L 456.5 199 L 457.5 197 Z " /><path fill="rgb(250,160,40)" stroke="rgb(250,160,40)" stroke-width="1" opacity="0.996078431372549" d="M 0.5 464 L 1 468.5 L 0 468.5 L 0.5 464 Z " /><path fill="rgb(250,160,40)" stroke="rgb(250,160,40)" stroke-width="1" opacity="0.996078431372549" d="M 9.5 491 L 12.5 495 L 9.5 491 Z " /><path fill="rgb(250,160,40)" stroke="rgb(250,160,40)" stroke-width="1" opacity="0.996078431372549" d="M 18.5 500 L 20.5 503 L 18.5 500 Z " /><path fill="rgb(250,160,40)" stroke="rgb(250,160,40)" stroke-width="1" opacity="0.996078431372549" d="M 22.5 503 L 23.5 505 L 22.5 503 Z " /><path fill="rgb(250,160,40)" stroke="rgb(250,160,40)" stroke-width="1" opacity="0.996078431372549" d="M 44.5 511 L 49 511.5 L 44.5 512 L 44.5 511 Z " /><path fill="rgb(253,200,112)" stroke="rgb(253,200,112)" stroke-width="1" opacity="0.996078431372549" d="M 510.5 186 L 508.5 189 L 510.5 186 Z " /><path fill="rgb(253,200,112)" stroke="rgb(253,200,112)" stroke-width="1" opacity="0.996078431372549" d="M 504.5 191 L 503.5 193 L 504.5 191 Z " /><path fill="rgb(253,200,112)" stroke="rgb(253,200,112)" stroke-width="1" opacity="0.996078431372549" d="M 498.5 196 L 497.5 198 L 498.5 196 Z " /><path fill="rgb(253,200,112)" stroke="rgb(253,200,112)" stroke-width="1" opacity="0.996078431372549" d="M 492.5 201 L 491.5 203 L 492.5 201 Z " /><path fill="rgb(253,200,112)" stroke="rgb(253,200,112)" stroke-width="1" opacity="0.996078431372549" d="M 486.5 206 L 485.5 208 L 486.5 206 Z " /><path fill="rgb(253,200,112)" stroke="rgb(253,200,112)" stroke-width="1" opacity="0.996078431372549" d="M 480.5 211 L 479.5 213 L 480.5 211 Z " /><path fill="rgb(253,200,112)" stroke="rgb(253,200,112)" stroke-width="1" opacity="0.996078431372549" d="M 474.5 216 L 473.5 218 L 474.5 216 Z " /><path fill="rgb(253,200,112)" stroke="rgb(253,200,112)" stroke-width="1" opacity="0.996078431372549" d="M 38.5 217 L 39.5 219 L 38.5 217 Z " /><path fill="rgb(253,200,112)" stroke="rgb(253,200,112)" stroke-width="1" opacity="0.996078431372549" d="M 43.5 221 L 45.5 224 L 43.5 221 Z " /><path fill="rgb(253,200,112)" stroke="rgb(253,200,112)" stroke-width="1" opacity="0.996078431372549" d="M 468.5 221 L 467.5 223 L 468.5 221 Z " /><path fill="rgb(253,200,112)" stroke="rgb(253,200,112)" stroke-width="1" opacity="0.996078431372549" d="M 49.5 226 L 51.5 229 L 49.5 226 Z " /><path fill="rgb(253,200,112)" stroke="rgb(253,200,112)" stroke-width="1" opacity="0.996078431372549" d="M 462.5 226 L 461.5 228 L 462.5 226 Z " /><path fill="rgb(253,200,112)" stroke="rgb(253,200,112)" stroke-width="1" opacity="0.996078431372549" d="M 55.5 231 L 59.5 236 L 55.5 231 Z " /><path fill="rgb(253,200,112)" stroke="rgb(253,200,112)" stroke-width="1" opacity="0.996078431372549" d="M 456.5 231 L 455.5 233 L 456.5 231 Z " /><path fill="rgb(253,200,112)" stroke="rgb(253,200,112)" stroke-width="1" opacity="0.996078431372549" d="M 453.5 234 L 452.5 236 L 453.5 234 Z " /><path fill="rgb(253,200,112)" stroke="rgb(253,200,112)" stroke-width="1" opacity="0.996078431372549" d="M 61.5 236 L 65.5 241 L 61.5 236 Z " /><path fill="rgb(253,200,112)" stroke="rgb(253,200,112)" stroke-width="1" opacity="0.996078431372549" d="M 450.5 236 L 446.5 241 L 450.5 236 Z " /><path fill="rgb(253,200,112)" stroke="rgb(253,200,112)" stroke-width="1" opacity="0.996078431372549" d="M 67.5 241 L 71.5 246 L 67.5 241 Z " /><path fill="rgb(253,200,112)" stroke="rgb(253,200,112)" stroke-width="1" opacity="0.996078431372549" d="M 444.5 241 L 440.5 246 L 444.5 241 Z " /><path fill="rgb(253,200,112)" stroke="rgb(253,200,112)" stroke-width="1" opacity="0.996078431372549" d="M 73.5 246 L 77.5 251 L 73.5 246 Z " /><path fill="rgb(253,200,112)" stroke="rgb(253,200,112)" stroke-width="1" opacity="0.996078431372549" d="M 438.5 246 L 435.5 250 L 438.5 246 Z " /><path fill="rgb(253,200,112)" stroke="rgb(253,200,112)" stroke-width="1" opacity="0.996078431372549" d="M 79.5 251 L 83.5 256 L 79.5 251 Z " /><path fill="rgb(253,200,112)" stroke="rgb(253,200,112)" stroke-width="1" opacity="0.996078431372549" d="M 432.5 251 L 429.5 255 L 432.5 251 Z " /><path fill="rgb(253,200,112)" stroke="rgb(253,200,112)" stroke-width="1" opacity="0.996078431372549" d="M 85.5 256 L 89.5 261 L 85.5 256 Z " /><path fill="rgb(253,200,112)" stroke="rgb(253,200,112)" stroke-width="1" opacity="0.996078431372549" d="M 426.5 256 L 423.5 260 L 426.5 256 Z " /><path fill="rgb(253,200,112)" stroke="rgb(253,200,112)" stroke-width="1" opacity="0.996078431372549" d="M 91.5 261 L 95.5 266 L 91.5 261 Z " /><path fill="rgb(253,200,112)" stroke="rgb(253,200,112)" stroke-width="1" opacity="0.996078431372549" d="M 420.5 261 L 417.5 265 L 420.5 261 Z " /><path fill="rgb(253,200,112)" stroke="rgb(253,200,112)" stroke-width="1" opacity="0.996078431372549" d="M 415.5 265 L 411.5 270 L 415.5 265 Z " /><path fill="rgb(253,200,112)" stroke="rgb(253,200,112)" stroke-width="1" opacity="0.996078431372549" d="M 97.5 266 L 101.5 271 L 97.5 266 Z " /><path fill="rgb(253,200,112)" stroke="rgb(253,200,112)" stroke-width="1" opacity="0.996078431372549" d="M 409.5 270 L 405.5 275 L 409.5 270 Z " /><path fill="rgb(253,200,112)" stroke="rgb(253,200,112)" stroke-width="1" opacity="0.996078431372549" d="M 103.5 271 L 107.5 276 L 103.5 271 Z " /><path fill="rgb(253,200,112)" stroke="rgb(253,200,112)" stroke-width="1" opacity="0.996078431372549" d="M 403.5 275 L 399.5 280 L 403.5 275 Z " /><path fill="rgb(253,200,112)" stroke="rgb(253,200,112)" stroke-width="1" opacity="0.996078431372549" d="M 109.5 276 L 113.5 281 L 109.5 276 Z " /><path fill="rgb(253,200,112)" stroke="rgb(253,200,112)" stroke-width="1" opacity="0.996078431372549" d="M 397.5 280 L 393.5 285 L 397.5 280 Z " /><path fill="rgb(253,200,112)" stroke="rgb(253,200,112)" stroke-width="1" opacity="0.996078431372549" d="M 115.5 281 L 119.5 286 L 115.5 281 Z " /><path fill="rgb(253,200,112)" stroke="rgb(253,200,112)" stroke-width="1" opacity="0.996078431372549" d="M 391.5 285 L 387.5 290 L 391.5 285 Z " /><path fill="rgb(253,200,112)" stroke="rgb(253,200,112)" stroke-width="1" opacity="0.996078431372549" d="M 121.5 286 L 125.5 291 L 121.5 286 Z " /><path fill="rgb(253,200,112)" stroke="rgb(253,200,112)" stroke-width="1" opacity="0.996078431372549" d="M 385.5 290 L 381.5 295 L 385.5 290 Z " /><path fill="rgb(253,200,112)" stroke="rgb(253,200,112)" stroke-width="1" opacity="0.996078431372549" d="M 127.5 291 L 131.5 296 L 127.5 291 Z " /><path fill="rgb(253,200,112)" stroke="rgb(253,200,112)" stroke-width="1" opacity="0.996078431372549" d="M 379.5 295 L 375.5 300 L 379.5 295 Z " /><path fill="rgb(253,200,112)" stroke="rgb(253,200,112)" stroke-width="1" opacity="0.996078431372549" d="M 133.5 296 L 136.5 300 L 133.5 296 Z " /><path fill="rgb(253,200,112)" stroke="rgb(253,200,112)" stroke-width="1" opacity="0.996078431372549" d="M 373.5 300 L 369.5 305 L 373.5 300 Z " /><path fill="rgb(253,200,112)" stroke="rgb(253,200,112)" stroke-width="1" opacity="0.996078431372549" d="M 139.5 301 L 142.5 305 L 139.5 301 Z " /><path fill="rgb(253,200,112)" stroke="rgb(253,200,112)" stroke-width="1" opacity="0.996078431372549" d="M 367.5 305 L 363.5 310 L 367.5 305 Z " /><path fill="rgb(253,200,112)" stroke="rgb(253,200,112)" stroke-width="1" opacity="0.996078431372549" d="M 145.5 306 L 148.5 310 L 145.5 306 Z " /><path fill="rgb(253,200,112)" stroke="rgb(253,200,112)" stroke-width="1" opacity="0.996078431372549" d="M 361.5 310 L 357.5 315 L 361.5 310 Z " /><path fill="rgb(253,200,112)" stroke="rgb(253,200,112)" stroke-width="1" opacity="0.996078431372549" d="M 151.5 311 L 154.5 315 L 151.5 311 Z " /><path fill="rgb(253,200,112)" stroke="rgb(253,200,112)" stroke-width="1" opacity="0.996078431372549" d="M 156.5 315 L 160.5 320 L 156.5 315 Z " /><path fill="rgb(253,200,112)" stroke="rgb(253,200,112)" stroke-width="1" opacity="0.996078431372549" d="M 355.5 315 L 352.5 319 L 355.5 315 Z " /><path fill="rgb(253,200,112)" stroke="rgb(253,200,112)" stroke-width="1" opacity="0.996078431372549" d="M 162.5 320 L 166.5 325 L 162.5 320 Z " /><path fill="rgb(253,200,112)" stroke="rgb(253,200,112)" stroke-width="1" opacity="0.996078431372549" d="M 349.5 320 L 346.5 324 L 349.5 320 Z " /><path fill="rgb(253,200,112)" stroke="rgb(253,200,112)" stroke-width="1" opacity="0.996078431372549" d="M 168.5 325 L 172.5 330 L 168.5 325 Z " /><path fill="rgb(253,200,112)" stroke="rgb(253,200,112)" stroke-width="1" opacity="0.996078431372549" d="M 343.5 325 L 340.5 329 L 343.5 325 Z " /><path fill="rgb(253,200,112)" stroke="rgb(253,200,112)" stroke-width="1" opacity="0.996078431372549" d="M 174.5 330 L 178.5 335 L 174.5 330 Z " /><path fill="rgb(253,200,112)" stroke="rgb(253,200,112)" stroke-width="1" opacity="0.996078431372549" d="M 337.5 330 L 334.5 334 L 337.5 330 Z " /><path fill="rgb(253,200,112)" stroke="rgb(253,200,112)" stroke-width="1" opacity="0.996078431372549" d="M 180.5 335 L 184.5 340 L 180.5 335 Z " /><path fill="rgb(253,200,112)" stroke="rgb(253,200,112)" stroke-width="1" opacity="0.996078431372549" d="M 331.5 335 L 328.5 339 L 331.5 335 Z " /><path fill="rgb(253,200,112)" stroke="rgb(253,200,112)" stroke-width="1" opacity="0.996078431372549" d="M 186.5 340 L 190.5 345 L 186.5 340 Z " /><path fill="rgb(253,200,112)" stroke="rgb(253,200,112)" stroke-width="1" opacity="0.996078431372549" d="M 325.5 340 L 322.5 344 L 325.5 340 Z " /><path fill="rgb(253,200,112)" stroke="rgb(253,200,112)" stroke-width="1" opacity="0.996078431372549" d="M 192.5 345 L 196.5 350 L 192.5 345 Z " /><path fill="rgb(253,200,112)" stroke="rgb(253,200,112)" stroke-width="1" opacity="0.996078431372549" d="M 319.5 345 L 315.5 350 L 319.5 345 Z " /><path fill="rgb(253,200,112)" stroke="rgb(253,200,112)" stroke-width="1" opacity="0.996078431372549" d="M 198.5 350 L 200.5 353 L 198.5 350 Z " /><path fill="rgb(253,200,112)" stroke="rgb(253,200,112)" stroke-width="1" opacity="0.996078431372549" d="M 313.5 350 L 311.5 353 L 313.5 350 Z " /><path fill="rgb(253,200,112)" stroke="rgb(253,200,112)" stroke-width="1" opacity="0.996078431372549" d="M 202.5 353 L 207 356.5 L 205.5 356 L 202.5 353 Z " /><path fill="rgb(253,200,112)" stroke="rgb(253,200,112)" stroke-width="1" opacity="0.996078431372549" d="M 309.5 353 L 308.5 355 L 309.5 353 Z " /><path fill="rgb(253,200,112)" stroke="rgb(253,200,112)" stroke-width="1" opacity="0.996078431372549" d="M 306.5 355 L 305.5 357 L 306.5 355 Z " /><path fill="rgb(253,200,112)" stroke="rgb(253,200,112)" stroke-width="1" opacity="0.996078431372549" d="M 208.5 357 L 212 359.5 L 210.5 359 L 208.5 357 Z " /><path fill="rgb(253,200,112)" stroke="rgb(253,200,112)" stroke-width="1" opacity="0.996078431372549" d="M 303.5 357 L 302.5 359 L 298.5 361 L 299.5 359 L 303.5 357 Z " /><path fill="rgb(253,200,112)" stroke="rgb(253,200,112)" stroke-width="1" opacity="0.996078431372549" d="M 170.5 360 L 173 360.5 L 170.5 361 L 170.5 360 Z " /><path fill="rgb(253,200,112)" stroke="rgb(253,200,112)" stroke-width="1" opacity="0.996078431372549" d="M 339.5 360 L 342 360.5 L 339.5 361 L 339.5 360 Z " /><path fill="rgb(253,200,112)" stroke="rgb(253,200,112)" stroke-width="1" opacity="0.996078431372549" d="M 293.5 362 L 295 362.5 L 291.5 364 L 291.5 363 L 293.5 362 Z " /><path fill="rgb(253,200,112)" stroke="rgb(253,200,112)" stroke-width="1" opacity="0.996078431372549" d="M 164.5 364 L 162.5 367 L 164.5 364 Z " /><path fill="rgb(253,200,112)" stroke="rgb(253,200,112)" stroke-width="1" opacity="0.996078431372549" d="M 348.5 365 L 349.5 367 L 348.5 365 Z " /><path fill="rgb(253,200,112)" stroke="rgb(253,200,112)" stroke-width="1" opacity="0.996078431372549" d="M 180.5 366 L 181 369.5 L 180 369.5 L 180.5 366 Z " /><path fill="rgb(253,200,112)" stroke="rgb(253,200,112)" stroke-width="1" opacity="0.996078431372549" d="M 331.5 366 L 332 369.5 L 331 369.5 L 331.5 366 Z " /><path fill="rgb(253,200,112)" stroke="rgb(253,200,112)" stroke-width="1" opacity="0.996078431372549" d="M 158.5 369 L 156.5 372 L 158.5 369 Z " /><path fill="rgb(253,200,112)" stroke="rgb(253,200,112)" stroke-width="1" opacity="0.996078431372549" d="M 240.5 369 L 243 369.5 L 240.5 370 L 240.5 369 Z " /><path fill="rgb(253,200,112)" stroke="rgb(253,200,112)" stroke-width="1" opacity="0.996078431372549" d="M 269.5 369 L 272 369.5 L 269.5 370 L 269.5 369 Z " /><path fill="rgb(253,200,112)" stroke="rgb(253,200,112)" stroke-width="1" opacity="0.996078431372549" d="M 247.5 370 L 265 370.5 L 247.5 371 L 247.5 370 Z " /><path fill="rgb(253,200,112)" stroke="rgb(253,200,112)" stroke-width="1" opacity="0.996078431372549" d="M 354.5 370 L 355.5 372 L 354.5 370 Z " /><path fill="rgb(253,200,112)" stroke="rgb(253,200,112)" stroke-width="1" opacity="0.996078431372549" d="M 332.5 372 L 335.5 376 L 332.5 372 Z " /><path fill="rgb(253,200,112)" stroke="rgb(253,200,112)" stroke-width="1" opacity="0.996078431372549" d="M 178.5 373 L 175.5 377 L 178.5 373 Z " /><path fill="rgb(253,200,112)" stroke="rgb(253,200,112)" stroke-width="1" opacity="0.996078431372549" d="M 152.5 374 L 151.5 376 L 152.5 374 Z " /><path fill="rgb(253,200,112)" stroke="rgb(253,200,112)" stroke-width="1" opacity="0.996078431372549" d="M 37.5 375 L 38 378.5 L 37 378.5 L 37.5 375 Z " /><path fill="rgb(253,200,112)" stroke="rgb(253,200,112)" stroke-width="1" opacity="0.996078431372549" d="M 360.5 375 L 361.5 377 L 360.5 375 Z " /><path fill="rgb(253,200,112)" stroke="rgb(253,200,112)" stroke-width="1" opacity="0.996078431372549" d="M 146.5 379 L 145.5 381 L 146.5 379 Z " /><path fill="rgb(253,200,112)" stroke="rgb(253,200,112)" stroke-width="1" opacity="0.996078431372549" d="M 340.5 379 L 341.5 381 L 340.5 379 Z " /><path fill="rgb(253,200,112)" stroke="rgb(253,200,112)" stroke-width="1" opacity="0.996078431372549" d="M 365.5 379 L 367.5 382 L 365.5 379 Z " /><path fill="rgb(253,200,112)" stroke="rgb(253,200,112)" stroke-width="1" opacity="0.996078431372549" d="M 170.5 380 L 169.5 382 L 170.5 380 Z " /><path fill="rgb(253,200,112)" stroke="rgb(253,200,112)" stroke-width="1" opacity="0.996078431372549" d="M 140.5 384 L 139.5 386 L 140.5 384 Z " /><path fill="rgb(253,200,112)" stroke="rgb(253,200,112)" stroke-width="1" opacity="0.996078431372549" d="M 346.5 384 L 347.5 386 L 346.5 384 Z " /><path fill="rgb(253,200,112)" stroke="rgb(253,200,112)" stroke-width="1" opacity="0.996078431372549" d="M 371.5 384 L 373.5 387 L 371.5 384 Z " /><path fill="rgb(253,200,112)" stroke="rgb(253,200,112)" stroke-width="1" opacity="0.996078431372549" d="M 163.5 386 L 162.5 388 L 163.5 386 Z " /><path fill="rgb(253,200,112)" stroke="rgb(253,200,112)" stroke-width="1" opacity="0.996078431372549" d="M 134.5 389 L 133.5 391 L 134.5 389 Z " /><path fill="rgb(253,200,112)" stroke="rgb(253,200,112)" stroke-width="1" opacity="0.996078431372549" d="M 352.5 389 L 353.5 391 L 352.5 389 Z " /><path fill="rgb(253,200,112)" stroke="rgb(253,200,112)" stroke-width="1" opacity="0.996078431372549" d="M 377.5 389 L 379.5 392 L 377.5 389 Z " /><path fill="rgb(253,200,112)" stroke="rgb(253,200,112)" stroke-width="1" opacity="0.996078431372549" d="M 157.5 391 L 155.5 394 L 157.5 391 Z " /><path fill="rgb(253,200,112)" stroke="rgb(253,200,112)" stroke-width="1" opacity="0.996078431372549" d="M 128.5 394 L 127.5 396 L 128.5 394 Z " /><path fill="rgb(253,200,112)" stroke="rgb(253,200,112)" stroke-width="1" opacity="0.996078431372549" d="M 358.5 394 L 359.5 396 L 358.5 394 Z " /><path fill="rgb(253,200,112)" stroke="rgb(253,200,112)" stroke-width="1" opacity="0.996078431372549" d="M 383.5 394 L 385.5 397 L 383.5 394 Z " /><path fill="rgb(253,200,112)" stroke="rgb(253,200,112)" stroke-width="1" opacity="0.996078431372549" d="M 150.5 397 L 148.5 400 L 150.5 397 Z " /><path fill="rgb(253,200,112)" stroke="rgb(253,200,112)" stroke-width="1" opacity="0.996078431372549" d="M 122.5 399 L 121.5 401 L 122.5 399 Z " /><path fill="rgb(253,200,112)" stroke="rgb(253,200,112)" stroke-width="1" opacity="0.996078431372549" d="M 364.5 399 L 365.5 401 L 364.5 399 Z " /><path fill="rgb(253,200,112)" stroke="rgb(253,200,112)" stroke-width="1" opacity="0.996078431372549" d="M 389.5 399 L 391.5 402 L 389.5 399 Z " /><path fill="rgb(253,200,112)" stroke="rgb(253,200,112)" stroke-width="1" opacity="0.996078431372549" d="M 46.5 401 L 47.5 403 L 46.5 401 Z " /><path fill="rgb(253,200,112)" stroke="rgb(253,200,112)" stroke-width="1" opacity="0.996078431372549" d="M 143.5 403 L 141.5 406 L 143.5 403 Z " /><path fill="rgb(253,200,112)" stroke="rgb(253,200,112)" stroke-width="1" opacity="0.996078431372549" d="M 116.5 404 L 115.5 406 L 116.5 404 Z " /><path fill="rgb(253,200,112)" stroke="rgb(253,200,112)" stroke-width="1" opacity="0.996078431372549" d="M 370.5 404 L 371.5 406 L 370.5 404 Z " /><path fill="rgb(253,200,112)" stroke="rgb(253,200,112)" stroke-width="1" opacity="0.996078431372549" d="M 395.5 404 L 397.5 407 L 395.5 404 Z " /><path fill="rgb(253,200,112)" stroke="rgb(253,200,112)" stroke-width="1" opacity="0.996078431372549" d="M 53.5 408 L 54.5 410 L 53.5 408 Z " /><path fill="rgb(253,200,112)" stroke="rgb(253,200,112)" stroke-width="1" opacity="0.996078431372549" d="M 136.5 409 L 134.5 412 L 136.5 409 Z " /><path fill="rgb(253,200,112)" stroke="rgb(253,200,112)" stroke-width="1" opacity="0.996078431372549" d="M 376.5 409 L 377.5 411 L 376.5 409 Z " /><path fill="rgb(253,200,112)" stroke="rgb(253,200,112)" stroke-width="1" opacity="0.996078431372549" d="M 401.5 409 L 403.5 412 L 401.5 409 Z " /><path fill="rgb(253,200,112)" stroke="rgb(253,200,112)" stroke-width="1" opacity="0.996078431372549" d="M 107.5 411 L 106.5 413 L 107.5 411 Z " /><path fill="rgb(253,200,112)" stroke="rgb(253,200,112)" stroke-width="1" opacity="0.996078431372549" d="M 382.5 414 L 383.5 416 L 382.5 414 Z " /><path fill="rgb(253,200,112)" stroke="rgb(253,200,112)" stroke-width="1" opacity="0.996078431372549" d="M 407.5 414 L 409.5 417 L 407.5 414 Z " /><path fill="rgb(253,200,112)" stroke="rgb(253,200,112)" stroke-width="1" opacity="0.996078431372549" d="M 129.5 415 L 127.5 418 L 129.5 415 Z " /><path fill="rgb(253,200,112)" stroke="rgb(253,200,112)" stroke-width="1" opacity="0.996078431372549" d="M 388.5 419 L 389.5 421 L 388.5 419 Z " /><path fill="rgb(253,200,112)" stroke="rgb(253,200,112)" stroke-width="1" opacity="0.996078431372549" d="M 413.5 419 L 415.5 422 L 413.5 419 Z " /><path fill="rgb(253,200,112)" stroke="rgb(253,200,112)" stroke-width="1" opacity="0.996078431372549" d="M 122.5 421 L 121.5 423 L 122.5 421 Z " /><path fill="rgb(253,200,112)" stroke="rgb(253,200,112)" stroke-width="1" opacity="0.996078431372549" d="M 394.5 424 L 395.5 426 L 394.5 424 Z " /><path fill="rgb(253,200,112)" stroke="rgb(253,200,112)" stroke-width="1" opacity="0.996078431372549" d="M 419.5 424 L 421.5 427 L 419.5 424 Z " /><path fill="rgb(253,200,112)" stroke="rgb(253,200,112)" stroke-width="1" opacity="0.996078431372549" d="M 115.5 427 L 114.5 429 L 115.5 427 Z " /><path fill="rgb(253,200,112)" stroke="rgb(253,200,112)" stroke-width="1" opacity="0.996078431372549" d="M 400.5 429 L 401.5 431 L 400.5 429 Z " /><path fill="rgb(253,200,112)" stroke="rgb(253,200,112)" stroke-width="1" opacity="0.996078431372549" d="M 425.5 429 L 426.5 431 L 425.5 429 Z " /><path fill="rgb(253,200,112)" stroke="rgb(253,200,112)" stroke-width="1" opacity="0.996078431372549" d="M 109.5 432 L 107.5 435 L 109.5 432 Z " /><path fill="rgb(253,200,112)" stroke="rgb(253,200,112)" stroke-width="1" opacity="0.996078431372549" d="M 406.5 434 L 407.5 436 L 406.5 434 Z " /><path fill="rgb(253,200,112)" stroke="rgb(253,200,112)" stroke-width="1" opacity="0.996078431372549" d="M 431.5 434 L 432.5 436 L 431.5 434 Z " /><path fill="rgb(253,200,112)" stroke="rgb(253,200,112)" stroke-width="1" opacity="0.996078431372549" d="M 102.5 438 L 100.5 441 L 102.5 438 Z " /><path fill="rgb(253,200,112)" stroke="rgb(253,200,112)" stroke-width="1" opacity="0.996078431372549" d="M 412.5 439 L 413.5 441 L 412.5 439 Z " /><path fill="rgb(253,200,112)" stroke="rgb(253,200,112)" stroke-width="1" opacity="0.996078431372549" d="M 437.5 439 L 438.5 441 L 437.5 439 Z " /><path fill="rgb(253,200,112)" stroke="rgb(253,200,112)" stroke-width="1" opacity="0.996078431372549" d="M 95.5 444 L 93.5 447 L 95.5 444 Z " /><path fill="rgb(253,200,112)" stroke="rgb(253,200,112)" stroke-width="1" opacity="0.996078431372549" d="M 418.5 444 L 419.5 446 L 418.5 444 Z " /><path fill="rgb(253,200,112)" stroke="rgb(253,200,112)" stroke-width="1" opacity="0.996078431372549" d="M 443.5 444 L 444.5 446 L 443.5 444 Z " /><path fill="rgb(253,200,112)" stroke="rgb(253,200,112)" stroke-width="1" opacity="0.996078431372549" d="M 424.5 449 L 425.5 451 L 424.5 449 Z " /><path fill="rgb(253,200,112)" stroke="rgb(253,200,112)" stroke-width="1" opacity="0.996078431372549" d="M 449.5 449 L 450.5 451 L 449.5 449 Z " /><path fill="rgb(253,200,112)" stroke="rgb(253,200,112)" stroke-width="1" opacity="0.996078431372549" d="M 88.5 450 L 86.5 453 L 88.5 450 Z " /><path fill="rgb(253,200,112)" stroke="rgb(253,200,112)" stroke-width="1" opacity="0.996078431372549" d="M 430.5 454 L 431.5 456 L 430.5 454 Z " /><path fill="rgb(253,200,112)" stroke="rgb(253,200,112)" stroke-width="1" opacity="0.996078431372549" d="M 455.5 454 L 456.5 456 L 455.5 454 Z " /><path fill="rgb(253,200,112)" stroke="rgb(253,200,112)" stroke-width="1" opacity="0.996078431372549" d="M 81.5 456 L 80.5 458 L 81.5 456 Z " /><path fill="rgb(253,200,112)" stroke="rgb(253,200,112)" stroke-width="1" opacity="0.996078431372549" d="M 436.5 459 L 437.5 461 L 436.5 459 Z " /><path fill="rgb(253,200,112)" stroke="rgb(253,200,112)" stroke-width="1" opacity="0.996078431372549" d="M 461.5 459 L 462.5 461 L 461.5 459 Z " /><path fill="rgb(253,200,112)" stroke="rgb(253,200,112)" stroke-width="1" opacity="0.996078431372549" d="M 74.5 462 L 72.5 465 L 74.5 462 Z " /><path fill="rgb(253,200,112)" stroke="rgb(253,200,112)" stroke-width="1" opacity="0.996078431372549" d="M 442.5 464 L 443.5 466 L 442.5 464 Z " /><path fill="rgb(253,200,112)" stroke="rgb(253,200,112)" stroke-width="1" opacity="0.996078431372549" d="M 467.5 464 L 470.5 468 L 467.5 464 Z " /><path fill="rgb(253,200,112)" stroke="rgb(253,200,112)" stroke-width="1" opacity="0.996078431372549" d="M 448.5 469 L 449.5 471 L 448.5 469 Z " /><path fill="rgb(253,200,112)" stroke="rgb(253,200,112)" stroke-width="1" opacity="0.996078431372549" d="M 454.5 474 L 455.5 476 L 454.5 474 Z " /><path fill="rgb(253,200,112)" stroke="rgb(253,200,112)" stroke-width="1" opacity="0.996078431372549" d="M 67.5 475 L 68 477.5 L 67 477.5 L 67.5 475 Z " /><path fill="rgb(253,200,112)" stroke="rgb(253,200,112)" stroke-width="1" opacity="0.996078431372549" d="M 70.5 490 L 71.5 492 L 70.5 490 Z " /><path fill="rgb(253,200,112)" stroke="rgb(253,200,112)" stroke-width="1" opacity="0.996078431372549" d="M 139.5 509 L 142 509.5 L 139.5 510 L 139.5 509 Z " /><path fill="rgb(253,200,112)" stroke="rgb(253,200,112)" stroke-width="1" opacity="0.996078431372549" d="M 146.5 510 L 149 510.5 L 146.5 511 L 146.5 510 Z " /><path fill="rgb(253,200,112)" stroke="rgb(253,200,112)" stroke-width="1" opacity="0.996078431372549" d="M 154.5 511 L 157 511.5 L 154.5 512 L 154.5 511 Z " /><path fill="rgb(251,160,40)" stroke="rgb(251,160,40)" stroke-width="1" opacity="1" d="M 243.5 1 L 268.5 1 L 285.5 5 Q 305.5 12 319 25.5 L 193.5 26 L 196.5 22 Q 214.5 6 243.5 1 Z " /><path fill="rgb(251,160,40)" stroke="rgb(251,160,40)" stroke-width="1" opacity="1" d="M 57.5 138 L 58 232.5 L 55.5 231 L 37 217 L 37 378.5 L 39 388.5 L 42 395.5 L 54.5 410 Q 66.1 420.9 90.5 419 L 106.5 413 L 167.5 362 L 173.5 360 L 179 363.5 L 180 371.5 L 72 464.5 Q 66.5 470 67 481.5 Q 68.6 492.4 76.5 497 L 85.5 501 L 154 511.5 L 49.5 512 L 48.5 511 L 39.5 511 L 30.5 508 Q 20.1 503.4 13 495.5 Q 6.4 489.1 3 479.5 L 0 463.5 L 0 186.5 L 57.5 138 Z " /><path fill="rgb(251,160,40)" stroke="rgb(251,160,40)" stroke-width="1" opacity="1" d="M 486 166 L 489.5 167 L 511 185.5 L 454.5 233 L 454 200.5 L 474 183.5 L 486 166 Z " /><path fill="rgb(251,160,40)" stroke="rgb(251,160,40)" stroke-width="1" opacity="1" d="M 338.5 360 L 344.5 362 L 471 468.5 L 472 474.5 L 468.5 479 L 461.5 480 L 332 371.5 Q 330.7 363.2 335.5 361 L 338.5 360 Z " /><path fill="rgb(254,201,112)" stroke="rgb(254,201,112)" stroke-width="1" opacity="1" d="M 511.5 186 L 512 467.5 L 510 477.5 L 506 486.5 Q 501.1 496.1 492.5 502 L 482.5 508 L 473.5 511 Q 467.2 509.2 465.5 512 L 157.5 512 L 156.5 511 L 135.5 509 L 134.5 508 L 82.5 500 L 72 492.5 L 68 485.5 L 67 478.5 Q 69.2 477.2 68 472.5 L 71 466.5 L 79.5 458 L 179 373.5 L 181 366.5 L 176.5 361 L 170.5 360 L 105.5 413 Q 95.2 420.2 76.5 419 Q 58 415.5 48 403.5 L 39 387.5 L 38 375.5 L 37 374.5 L 37 217.5 L 39.5 219 L 77.5 251 L 79 250.5 L 83.5 256 L 85 255.5 L 89.5 261 L 91 260.5 L 95.5 266 L 97 265.5 L 101.5 271 L 103 270.5 L 107.5 276 L 109 275.5 L 113.5 281 L 115 280.5 L 119.5 286 L 121 285.5 L 125.5 291 L 127 290.5 L 131.5 296 L 133 295.5 L 136.5 300 Q 139.8 298.9 139 301.5 Q 140.3 305.7 145 305 L 148.5 310 Q 151.8 308.9 151 311.5 L 196.5 350 L 211.5 360 L 213 359.5 L 213.5 361 L 215 360.5 Q 214.3 362.8 216.5 362 L 220.5 364 L 222.5 365 L 224 364.5 Q 223.2 367.1 226.5 366 L 228.5 367 Q 230 364.5 231.5 368 L 236.5 369 L 238.5 369 L 242.5 370 L 244.5 370 L 247.5 371 L 264.5 371 L 268.5 369 L 271.5 370 L 274.5 368 L 276.5 369 L 282.5 366 L 284.5 367 L 288 366 L 288.5 364 L 290.5 364 L 295 363 L 295.5 361 L 297 361.5 L 297.5 360 L 299.5 360 L 314 350.5 L 314.5 349 L 315.5 350 L 321.5 344 L 421 261.5 Q 420.2 258.9 423.5 260 L 427 255 Q 431.7 255.8 433 251.5 Q 432.2 248.9 435.5 250 L 439.5 245 L 440.5 246 L 445 241.5 L 445.5 240 L 446.5 241 L 451 236.5 L 451.5 235 Q 452.8 237.3 454 234.5 Q 453.3 232.3 455.5 233 L 511.5 186 Z M 338 360 L 336 361 L 331 367 L 332 373 L 462 480 Q 471 482 472 476 L 471 468 L 349 365 L 342 360 L 338 360 Z " /></svg>