<svg width="512" height="512" version="1.1" xmlns="http://www.w3.org/2000/svg" desc="Created with imagetracer.js version 1.2.6" ><path fill="rgb(79,185,110)" stroke="rgb(79,185,110)" stroke-width="1" opacity="0.5058823529411764" d="M 239.5 0 L 248 0.5 L 239.5 1 L 239.5 0 Z " /><path fill="rgb(79,185,110)" stroke="rgb(79,185,110)" stroke-width="1" opacity="0.5058823529411764" d="M 264.5 0 L 273 0.5 L 264.5 1 L 264.5 0 Z " /><path fill="rgb(79,185,110)" stroke="rgb(79,185,110)" stroke-width="1" opacity="0.5058823529411764" d="M 232.5 1 L 237 1.5 L 232.5 2 L 232.5 1 Z " /><path fill="rgb(79,185,110)" stroke="rgb(79,185,110)" stroke-width="1" opacity="0.5058823529411764" d="M 275.5 1 L 280 1.5 L 275.5 2 L 275.5 1 Z " /><path fill="rgb(79,185,110)" stroke="rgb(79,185,110)" stroke-width="1" opacity="0.5058823529411764" d="M 227.5 2 L 231 2.5 L 227.5 3 L 227.5 2 Z " /><path fill="rgb(79,185,110)" stroke="rgb(79,185,110)" stroke-width="1" opacity="0.5058823529411764" d="M 281.5 2 L 285 2.5 L 281.5 3 L 281.5 2 Z " /><path fill="rgb(79,185,110)" stroke="rgb(79,185,110)" stroke-width="1" opacity="0.5058823529411764" d="M 222.5 3 L 226 3.5 L 215.5 6 L 215.5 5 L 222.5 3 Z " /><path fill="rgb(79,185,110)" stroke="rgb(79,185,110)" stroke-width="1" opacity="0.5058823529411764" d="M 286.5 3 L 297 5.5 L 294.5 6 L 286.5 4 L 286.5 3 Z " /><path fill="rgb(79,185,110)" stroke="rgb(79,185,110)" stroke-width="1" opacity="0.5058823529411764" d="M 206.5 8 L 208 8.5 Q 174 21 152 45.5 Q 136.2 62.2 126.5 85 L 126 83.5 Q 139.1 54.6 161.5 35 Q 180.4 17.9 206.5 8 Z " /><path fill="rgb(79,185,110)" stroke="rgb(79,185,110)" stroke-width="1" opacity="0.5058823529411764" d="M 304.5 8 L 313 11.5 L 311.5 12 L 304.5 9 L 304.5 8 Z " /><path fill="rgb(79,185,110)" stroke="rgb(79,185,110)" stroke-width="1" opacity="0.5058823529411764" d="M 314.5 12 L 330 20.5 L 328.5 20 L 314.5 13 L 314.5 12 Z " /><path fill="rgb(79,185,110)" stroke="rgb(79,185,110)" stroke-width="1" opacity="0.5058823529411764" d="M 331.5 21 Q 348.9 31.6 362 46.5 Q 377 62.5 386 84.5 L 385 84.5 Q 372.9 56.1 351.5 37 L 332.5 23 L 331.5 21 Z " /><path fill="rgb(79,185,110)" stroke="rgb(79,185,110)" stroke-width="1" opacity="0.5058823529411764" d="M 125.5 86 L 126 87.5 L 124.5 90 L 124 88.5 L 125.5 86 Z " /><path fill="rgb(79,185,110)" stroke="rgb(79,185,110)" stroke-width="1" opacity="0.5058823529411764" d="M 386.5 86 L 388 89.5 L 387 89.5 L 386.5 86 Z " /><path fill="rgb(79,185,110)" stroke="rgb(79,185,110)" stroke-width="1" opacity="0.5058823529411764" d="M 123.5 91 L 124 92.5 L 120.5 102 L 120 99.5 L 123.5 91 Z " /><path fill="rgb(79,185,110)" stroke="rgb(79,185,110)" stroke-width="1" opacity="0.5058823529411764" d="M 388.5 91 L 392 101.5 L 391 101.5 L 388.5 91 Z " /><path fill="rgb(79,185,110)" stroke="rgb(79,185,110)" stroke-width="1" opacity="0.5058823529411764" d="M 119.5 103 L 120 105.5 L 119 105.5 L 119.5 103 Z " /><path fill="rgb(79,185,110)" stroke="rgb(79,185,110)" stroke-width="1" opacity="0.5058823529411764" d="M 392.5 103 L 393 105.5 L 392 105.5 L 392.5 103 Z " /><path fill="rgb(79,185,110)" stroke="rgb(79,185,110)" stroke-width="1" opacity="0.5058823529411764" d="M 118.5 107 L 119 109.5 L 118 109.5 L 118.5 107 Z " /><path fill="rgb(79,185,110)" stroke="rgb(79,185,110)" stroke-width="1" opacity="0.5058823529411764" d="M 393.5 107 L 394 109.5 L 393 109.5 L 393.5 107 Z " /><path fill="rgb(79,185,110)" stroke="rgb(79,185,110)" stroke-width="1" opacity="0.5058823529411764" d="M 117.5 111 L 118 114.5 L 117 114.5 L 117.5 111 Z " /><path fill="rgb(79,185,110)" stroke="rgb(79,185,110)" stroke-width="1" opacity="0.5058823529411764" d="M 394.5 111 L 395 114.5 L 394 114.5 L 394.5 111 Z " /><path fill="rgb(79,185,110)" stroke="rgb(79,185,110)" stroke-width="1" opacity="0.5058823529411764" d="M 116.5 116 L 117 120.5 L 116 120.5 L 116.5 116 Z " /><path fill="rgb(79,185,110)" stroke="rgb(79,185,110)" stroke-width="1" opacity="0.5058823529411764" d="M 395.5 116 L 396 120.5 L 395 120.5 L 395.5 116 Z " /><path fill="rgb(79,185,110)" stroke="rgb(79,185,110)" stroke-width="1" opacity="0.5058823529411764" d="M 115.5 123 L 116 129.5 L 115 129.5 L 115.5 123 Z " /><path fill="rgb(79,185,110)" stroke="rgb(79,185,110)" stroke-width="1" opacity="0.5058823529411764" d="M 396.5 123 L 397 129.5 L 396 129.5 L 396.5 123 Z " /><path fill="rgb(79,185,110)" stroke="rgb(79,185,110)" stroke-width="1" opacity="0.5058823529411764" d="M 114.5 133 L 115 148.5 L 114 148.5 L 114.5 133 Z " /><path fill="rgb(79,185,110)" stroke="rgb(79,185,110)" stroke-width="1" opacity="0.5058823529411764" d="M 397.5 133 L 398 148.5 L 397 148.5 L 397.5 133 Z " /><path fill="rgb(79,185,110)" stroke="rgb(79,185,110)" stroke-width="1" opacity="0.5058823529411764" d="M 396.5 152 L 397 159.5 L 396 159.5 L 396.5 152 Z " /><path fill="rgb(79,185,110)" stroke="rgb(79,185,110)" stroke-width="1" opacity="0.5058823529411764" d="M 115.5 153 L 116 159.5 L 115 159.5 L 115.5 153 Z " /><path fill="rgb(79,185,110)" stroke="rgb(79,185,110)" stroke-width="1" opacity="0.5058823529411764" d="M 116.5 162 L 117 165.5 L 116 165.5 L 116.5 162 Z " /><path fill="rgb(79,185,110)" stroke="rgb(79,185,110)" stroke-width="1" opacity="0.5058823529411764" d="M 395.5 162 L 396 165.5 L 395 165.5 L 395.5 162 Z " /><path fill="rgb(79,185,110)" stroke="rgb(79,185,110)" stroke-width="1" opacity="0.5058823529411764" d="M 117.5 168 L 119 175.5 L 118 175.5 L 117.5 168 Z " /><path fill="rgb(79,185,110)" stroke="rgb(79,185,110)" stroke-width="1" opacity="0.5058823529411764" d="M 394.5 168 L 395 171.5 L 393.5 176 L 393 172.5 L 394.5 168 Z " /><path fill="rgb(79,185,110)" stroke="rgb(79,185,110)" stroke-width="1" opacity="0.5058823529411764" d="M 119.5 177 L 121 182.5 L 120 182.5 L 119.5 177 Z " /><path fill="rgb(79,185,110)" stroke="rgb(79,185,110)" stroke-width="1" opacity="0.5058823529411764" d="M 392.5 177 L 393 179.5 L 391.5 183 L 391 180.5 L 392.5 177 Z " /><path fill="rgb(79,185,110)" stroke="rgb(79,185,110)" stroke-width="1" opacity="0.5058823529411764" d="M 123.5 190 L 125 193.5 L 124 193.5 L 123.5 190 Z " /><path fill="rgb(79,185,110)" stroke="rgb(79,185,110)" stroke-width="1" opacity="0.5058823529411764" d="M 388.5 190 L 389 191.5 L 387.5 194 L 387 192.5 L 388.5 190 Z " /><path fill="rgb(0,0,0)" stroke="rgb(0,0,0)" stroke-width="1" opacity="0" d="M 0 0 L 239 0.5 L 218.5 4 Q 202.1 8.6 188.5 16 Q 166.3 28.3 150 46.5 Q 132 66 122 93.5 L 116 116.5 L 115 132.5 L 114 133.5 L 114 148.5 L 115 149.5 L 115 159.5 L 116 160.5 L 117 171.5 L 124 194 L 12.5 194 L 3 200.5 L 0.5 206 L 0 0 Z " /><path fill="rgb(0,0,0)" stroke="rgb(0,0,0)" stroke-width="1" opacity="0" d="M 273.5 0 L 512 0 L 512 205.5 L 511 205.5 L 511 203.5 L 505.5 197 L 499.5 194 L 388 194 L 395 171.5 L 395 166.5 L 397 159.5 L 397 149.5 L 398 148.5 L 398 133.5 L 397 132.5 L 397 123.5 L 396 122.5 L 395 111.5 L 386 83.5 Q 372.8 54.7 350.5 35 Q 335.2 21.3 315.5 12 L 293.5 4 L 279.5 1 L 273.5 1 L 273.5 0 Z " /><path fill="rgb(0,0,0)" stroke="rgb(0,0,0)" stroke-width="1" opacity="0" d="M 0.5 253 L 6.5 262 L 12.5 265 L 26 265 L 64 479.5 Q 68.4 494.6 79.5 503 Q 86.3 509.7 98 511.5 L 0 512 L 0.5 253 Z " /><path fill="rgb(0,0,0)" stroke="rgb(0,0,0)" stroke-width="1" opacity="0" d="M 511.5 253 L 512 512 L 414 511.5 Q 431.2 507.7 440 495.5 L 448 479.5 L 486 265 L 499.5 265 L 509 258.5 L 511.5 253 Z " /><path fill="rgb(239,195,25)" stroke="rgb(239,195,25)" stroke-width="1" opacity="0.9882352941176471" d="M 12.5 194 L 124.5 194 L 126 195.5 Q 139.8 229.8 166.5 251 L 187 264.5 L 12.5 265 L 3 258.5 L 0 252.5 L 0 206.5 L 6.5 197 L 12.5 194 Z M 50 221 L 44 228 Q 43 234 46 236 L 50 238 L 57 238 L 62 232 L 61 226 Q 59 219 50 221 Z M 103 221 L 99 223 L 97 228 Q 96 234 99 236 L 103 238 L 110 238 L 115 232 L 114 226 Q 112 219 103 221 Z " /><path fill="rgb(239,195,25)" stroke="rgb(239,195,25)" stroke-width="1" opacity="0.9882352941176471" d="M 387.5 194 L 499.5 194 L 509 200.5 L 512 206.5 L 512 252.5 L 505.5 262 L 499.5 265 L 325.5 265 L 325.5 264 Q 348.9 251.4 365 231.5 Q 378.7 215.2 387.5 194 Z M 403 221 L 397 228 Q 397 236 403 238 L 410 238 L 413 236 L 415 232 Q 416 225 413 223 L 410 221 L 403 221 Z M 456 221 L 450 228 Q 450 236 456 238 L 463 238 L 466 236 L 468 232 L 467 226 Q 465 219 456 221 Z " /><path fill="rgb(234,239,240)" stroke="rgb(234,239,240)" stroke-width="1" opacity="1" d="M 332.5 88 Q 346.9 87.1 351 96.5 Q 354.7 100.8 353 110.5 L 350 116.5 L 240.5 226 L 229.5 230 L 218.5 226 L 163 170.5 Q 157.8 166.2 159 155.5 L 164.5 146 L 171.5 142 L 177.5 141 L 186.5 144 L 229.5 187 L 325.5 91 L 332.5 88 Z " /><path fill="rgb(79,186,111)" stroke="rgb(79,186,111)" stroke-width="1" opacity="1" d="M 248.5 0 L 263.5 0 L 264.5 1 L 280.5 2 L 297.5 6 L 313.5 12 Q 340.9 24.6 360 45.5 Q 377.6 64.4 388 90.5 L 392 102.5 L 396 121.5 L 397 151.5 L 396 152.5 L 395 167.5 L 391 183.5 L 380 209.5 Q 366.8 233.3 346.5 250 Q 325.7 267.7 296.5 277 L 271.5 282 L 240.5 282 L 215.5 277 Q 199 272 185.5 264 Q 162.9 251.1 147 231.5 Q 129.9 211.6 121 183.5 L 116 161.5 L 115 130.5 L 116 129.5 L 116 121.5 L 118 110.5 L 126 85.5 Q 138.8 56.8 160.5 37 Q 178.7 20.2 203.5 10 L 226.5 3 L 237.5 1 L 247.5 1 L 248.5 0 Z M 333 88 L 326 91 L 230 187 L 187 144 L 178 141 L 172 142 L 165 146 L 159 156 Q 158 166 163 171 L 219 226 L 230 230 L 241 226 L 350 117 L 353 111 Q 355 101 351 97 Q 347 87 333 88 Z " /><path fill="rgb(210,87,38)" stroke="rgb(210,87,38)" stroke-width="1" opacity="0.996078431372549" d="M 146.5 309 Q 160.2 308.3 165 316.5 L 168 324.5 L 168 452.5 Q 166.6 460 161.5 464 Q 157.5 469 147.5 468 Q 140 466.5 136 461.5 L 132 451.5 L 132 325.5 L 134 318.5 L 139.5 312 L 146.5 309 Z " /><path fill="rgb(210,87,38)" stroke="rgb(210,87,38)" stroke-width="1" opacity="0.996078431372549" d="M 252.5 309 Q 265.2 308.3 270 315.5 L 274 324.5 L 274 451.5 L 272 458.5 L 267.5 464 Q 263.2 469.2 252.5 468 L 242 461.5 L 238 452.5 L 238 324.5 Q 239.7 316.2 245.5 312 L 252.5 309 Z " /><path fill="rgb(210,87,38)" stroke="rgb(210,87,38)" stroke-width="1" opacity="0.996078431372549" d="M 358.5 309 Q 371.2 308.3 376 315.5 L 380 325.5 L 380 451.5 L 378 458.5 L 373.5 464 Q 368.7 468.7 358.5 468 L 348 461.5 L 344 452.5 L 344 324.5 Q 345.5 316 351.5 312 L 358.5 309 Z " /><path fill="rgb(241,156,31)" stroke="rgb(241,156,31)" stroke-width="1" opacity="0.996078431372549" d="M 409.5 221 L 410.5 223 L 409.5 221 Z " /><path fill="rgb(241,156,31)" stroke="rgb(241,156,31)" stroke-width="1" opacity="0.996078431372549" d="M 397.5 227 L 398 231.5 L 397 231.5 L 397.5 227 Z " /><path fill="rgb(241,156,31)" stroke="rgb(241,156,31)" stroke-width="1" opacity="0.996078431372549" d="M 26.5 265 L 28 267.5 L 29 278.5 L 33 295.5 L 34 306.5 L 38 323.5 L 39 334.5 L 43 351.5 L 44 362.5 L 48 379.5 L 49 390.5 L 53 407.5 L 64 474.5 Q 68 493.5 81.5 503 Q 90.8 510.8 107 511.5 L 98.5 512 Q 81.1 507.9 72 495.5 L 65 482.5 L 62 469.5 L 62 464.5 L 60 458.5 L 59 447.5 L 55 430.5 L 54 419.5 L 52 413.5 L 51 402.5 L 47 385.5 L 46 374.5 L 42 357.5 L 41 346.5 L 39 340.5 L 39 335.5 L 37 329.5 L 36 318.5 L 34 312.5 L 34 307.5 L 32 301.5 L 26.5 265 Z " /><path fill="rgb(241,156,31)" stroke="rgb(241,156,31)" stroke-width="1" opacity="0.996078431372549" d="M 188.5 265 L 197 269.5 L 195.5 270 L 189.5 267 L 188.5 265 Z " /><path fill="rgb(241,156,31)" stroke="rgb(241,156,31)" stroke-width="1" opacity="0.996078431372549" d="M 323.5 265 L 322.5 267 L 315.5 270 L 315.5 269 L 323.5 265 Z " /><path fill="rgb(241,156,31)" stroke="rgb(241,156,31)" stroke-width="1" opacity="0.996078431372549" d="M 485.5 265 L 486 267.5 L 481 290.5 L 480 301.5 L 476 318.5 L 475 329.5 L 471 346.5 L 470 357.5 L 466 374.5 L 465 385.5 L 461 402.5 L 460 413.5 L 458 419.5 L 458 424.5 L 448 479.5 Q 443.6 494.6 432.5 503 Q 423.5 512 405.5 512 L 405.5 511 Q 419.7 511.2 427.5 505 L 440 493.5 Q 445.7 485.7 448 474.5 L 451 452.5 L 463 390.5 L 464 379.5 L 466 373.5 L 466 368.5 L 478 306.5 L 479 295.5 L 483 278.5 L 484 267.5 L 485.5 265 Z " /><path fill="rgb(241,156,31)" stroke="rgb(241,156,31)" stroke-width="1" opacity="0.996078431372549" d="M 220.5 278 L 223 278.5 L 220.5 279 L 220.5 278 Z " /><path fill="rgb(241,156,31)" stroke="rgb(241,156,31)" stroke-width="1" opacity="0.996078431372549" d="M 289.5 278 L 292 278.5 L 289.5 279 L 289.5 278 Z " /><path fill="rgb(241,156,31)" stroke="rgb(241,156,31)" stroke-width="1" opacity="0.996078431372549" d="M 229.5 280 L 232 280.5 L 229.5 281 L 229.5 280 Z " /><path fill="rgb(241,156,31)" stroke="rgb(241,156,31)" stroke-width="1" opacity="0.996078431372549" d="M 279.5 280 L 283 280.5 L 279.5 281 L 279.5 280 Z " /><path fill="rgb(241,156,31)" stroke="rgb(241,156,31)" stroke-width="1" opacity="0.996078431372549" d="M 235.5 281 L 240 281.5 L 235.5 282 L 235.5 281 Z " /><path fill="rgb(241,156,31)" stroke="rgb(241,156,31)" stroke-width="1" opacity="0.996078431372549" d="M 272.5 281 L 277 281.5 L 272.5 282 L 272.5 281 Z " /><path fill="rgb(241,156,31)" stroke="rgb(241,156,31)" stroke-width="1" opacity="0.996078431372549" d="M 245.5 282 L 267 282.5 L 245.5 283 L 245.5 282 Z " /><path fill="rgb(241,156,31)" stroke="rgb(241,156,31)" stroke-width="1" opacity="0.996078431372549" d="M 157.5 310 L 160 311.5 L 158.5 311 L 157.5 310 Z " /><path fill="rgb(241,156,31)" stroke="rgb(241,156,31)" stroke-width="1" opacity="0.996078431372549" d="M 247.5 310 L 249 310.5 L 246.5 312 L 247.5 310 Z " /><path fill="rgb(241,156,31)" stroke="rgb(241,156,31)" stroke-width="1" opacity="0.996078431372549" d="M 263.5 310 L 266 311.5 L 264.5 311 L 263.5 310 Z " /><path fill="rgb(241,156,31)" stroke="rgb(241,156,31)" stroke-width="1" opacity="0.996078431372549" d="M 353.5 310 L 355 310.5 L 352.5 312 L 353.5 310 Z " /><path fill="rgb(241,156,31)" stroke="rgb(241,156,31)" stroke-width="1" opacity="0.996078431372549" d="M 138.5 312 L 136.5 315 L 138.5 312 Z " /><path fill="rgb(241,156,31)" stroke="rgb(241,156,31)" stroke-width="1" opacity="0.996078431372549" d="M 161.5 312 L 164.5 316 L 161.5 312 Z " /><path fill="rgb(241,156,31)" stroke="rgb(241,156,31)" stroke-width="1" opacity="0.996078431372549" d="M 244.5 312 L 242.5 315 L 244.5 312 Z " /><path fill="rgb(241,156,31)" stroke="rgb(241,156,31)" stroke-width="1" opacity="0.996078431372549" d="M 267.5 312 L 269.5 315 L 267.5 312 Z " /><path fill="rgb(241,156,31)" stroke="rgb(241,156,31)" stroke-width="1" opacity="0.996078431372549" d="M 350.5 312 L 347.5 316 L 350.5 312 Z " /><path fill="rgb(241,156,31)" stroke="rgb(241,156,31)" stroke-width="1" opacity="0.996078431372549" d="M 373.5 312 L 375.5 315 L 373.5 312 Z " /><path fill="rgb(241,156,31)" stroke="rgb(241,156,31)" stroke-width="1" opacity="0.996078431372549" d="M 135.5 316 L 134.5 318 L 135.5 316 Z " /><path fill="rgb(241,156,31)" stroke="rgb(241,156,31)" stroke-width="1" opacity="0.996078431372549" d="M 241.5 316 L 240.5 318 L 241.5 316 Z " /><path fill="rgb(241,156,31)" stroke="rgb(241,156,31)" stroke-width="1" opacity="0.996078431372549" d="M 270.5 316 L 271.5 318 L 270.5 316 Z " /><path fill="rgb(241,156,31)" stroke="rgb(241,156,31)" stroke-width="1" opacity="0.996078431372549" d="M 376.5 316 L 377.5 318 L 376.5 316 Z " /><path fill="rgb(241,156,31)" stroke="rgb(241,156,31)" stroke-width="1" opacity="0.996078431372549" d="M 167.5 321 L 168 323.5 L 167 323.5 L 167.5 321 Z " /><path fill="rgb(241,156,31)" stroke="rgb(241,156,31)" stroke-width="1" opacity="0.996078431372549" d="M 344.5 321 L 345 323.5 L 344 323.5 L 344.5 321 Z " /><path fill="rgb(241,156,31)" stroke="rgb(241,156,31)" stroke-width="1" opacity="0.996078431372549" d="M 132.5 322 L 133 324.5 L 132 324.5 L 132.5 322 Z " /><path fill="rgb(241,156,31)" stroke="rgb(241,156,31)" stroke-width="1" opacity="0.996078431372549" d="M 379.5 322 L 380 324.5 L 379 324.5 L 379.5 322 Z " /><path fill="rgb(241,156,31)" stroke="rgb(241,156,31)" stroke-width="1" opacity="0.996078431372549" d="M 132.5 452 L 133 454.5 L 132 454.5 L 132.5 452 Z " /><path fill="rgb(241,156,31)" stroke="rgb(241,156,31)" stroke-width="1" opacity="0.996078431372549" d="M 273.5 452 L 274 454.5 L 273 454.5 L 273.5 452 Z " /><path fill="rgb(241,156,31)" stroke="rgb(241,156,31)" stroke-width="1" opacity="0.996078431372549" d="M 379.5 452 L 380 454.5 L 379 454.5 L 379.5 452 Z " /><path fill="rgb(241,156,31)" stroke="rgb(241,156,31)" stroke-width="1" opacity="0.996078431372549" d="M 134.5 459 L 135.5 461 L 134.5 459 Z " /><path fill="rgb(241,156,31)" stroke="rgb(241,156,31)" stroke-width="1" opacity="0.996078431372549" d="M 165.5 459 L 164.5 461 L 165.5 459 Z " /><path fill="rgb(241,156,31)" stroke="rgb(241,156,31)" stroke-width="1" opacity="0.996078431372549" d="M 240.5 459 L 241.5 461 L 240.5 459 Z " /><path fill="rgb(241,156,31)" stroke="rgb(241,156,31)" stroke-width="1" opacity="0.996078431372549" d="M 271.5 459 L 270.5 461 L 271.5 459 Z " /><path fill="rgb(241,156,31)" stroke="rgb(241,156,31)" stroke-width="1" opacity="0.996078431372549" d="M 346.5 459 L 347.5 461 L 346.5 459 Z " /><path fill="rgb(241,156,31)" stroke="rgb(241,156,31)" stroke-width="1" opacity="0.996078431372549" d="M 377.5 459 L 376.5 461 L 377.5 459 Z " /><path fill="rgb(241,156,31)" stroke="rgb(241,156,31)" stroke-width="1" opacity="0.996078431372549" d="M 163.5 462 L 162.5 464 L 163.5 462 Z " /><path fill="rgb(241,156,31)" stroke="rgb(241,156,31)" stroke-width="1" opacity="0.996078431372549" d="M 242.5 462 L 243.5 464 L 242.5 462 Z " /><path fill="rgb(241,156,31)" stroke="rgb(241,156,31)" stroke-width="1" opacity="0.996078431372549" d="M 348.5 462 L 349.5 464 L 348.5 462 Z " /><path fill="rgb(241,156,31)" stroke="rgb(241,156,31)" stroke-width="1" opacity="0.996078431372549" d="M 139.5 464 L 140.5 466 L 139.5 464 Z " /><path fill="rgb(241,156,31)" stroke="rgb(241,156,31)" stroke-width="1" opacity="0.996078431372549" d="M 160.5 464 L 159.5 466 L 160.5 464 Z " /><path fill="rgb(241,156,31)" stroke="rgb(241,156,31)" stroke-width="1" opacity="0.996078431372549" d="M 245.5 464 L 246.5 466 L 245.5 464 Z " /><path fill="rgb(241,156,31)" stroke="rgb(241,156,31)" stroke-width="1" opacity="0.996078431372549" d="M 266.5 464 L 265.5 466 L 266.5 464 Z " /><path fill="rgb(241,156,31)" stroke="rgb(241,156,31)" stroke-width="1" opacity="0.996078431372549" d="M 351.5 464 L 352.5 466 L 351.5 464 Z " /><path fill="rgb(241,156,31)" stroke="rgb(241,156,31)" stroke-width="1" opacity="0.996078431372549" d="M 372.5 464 L 371.5 466 L 372.5 464 Z " /><path fill="rgb(241,156,31)" stroke="rgb(241,156,31)" stroke-width="1" opacity="0.996078431372549" d="M 144.5 467 L 147 467.5 L 144.5 468 L 144.5 467 Z " /><path fill="rgb(241,156,31)" stroke="rgb(241,156,31)" stroke-width="1" opacity="0.996078431372549" d="M 365.5 467 L 368 467.5 L 365.5 468 L 365.5 467 Z " /><path fill="rgb(242,156,31)" stroke="rgb(242,156,31)" stroke-width="1" opacity="1" d="M 49.5 221 Q 58.4 220.1 61 225.5 L 62 229.5 L 61 233.5 L 56.5 238 Q 47.1 239.3 45 233.5 L 44 228.5 L 49.5 221 Z " /><path fill="rgb(242,156,31)" stroke="rgb(242,156,31)" stroke-width="1" opacity="1" d="M 103.5 221 Q 111.1 219.9 113 224.5 L 115 228.5 L 114 231.5 L 110.5 237 L 103.5 238 L 98 233.5 L 97 227.5 L 101.5 222 L 103.5 221 Z " /><path fill="rgb(242,156,31)" stroke="rgb(242,156,31)" stroke-width="1" opacity="1" d="M 404.5 221 L 408.5 221 L 414 225.5 L 415 231.5 L 410.5 237 L 403.5 238 L 399 234.5 L 398 226.5 L 401.5 222 L 404.5 221 Z " /><path fill="rgb(242,156,31)" stroke="rgb(242,156,31)" stroke-width="1" opacity="1" d="M 457.5 221 L 462.5 221 L 467 225.5 L 468 229.5 L 467 233.5 L 463.5 237 L 455.5 238 L 451 233.5 L 450 229.5 L 451 225.5 L 454.5 222 L 457.5 221 Z " /><path fill="rgb(242,156,31)" stroke="rgb(242,156,31)" stroke-width="1" opacity="1" d="M 27 265 L 187.5 265 L 202.5 273 L 220.5 279 L 235.5 282 L 244.5 282 L 245.5 283 L 266.5 283 L 267.5 282 L 282.5 281 L 298.5 277 L 316.5 270 L 324.5 265 L 485 265 L 476 312.5 L 476 317.5 L 474 323.5 L 471 345.5 L 469 351.5 L 466 373.5 L 464 379.5 L 458 418.5 L 456 424.5 L 453 446.5 L 451 452.5 L 448 474.5 Q 444 493.5 430.5 503 L 419.5 509 L 404.5 512 L 107.5 512 L 106.5 511 L 95.5 510 L 84.5 505 L 72 493.5 Q 66.3 485.7 64 474.5 L 61 452.5 L 59 446.5 L 53 407.5 L 51 401.5 L 48 379.5 L 46 373.5 L 43 351.5 L 41 345.5 L 38 323.5 L 36 317.5 L 36 312.5 L 27 265 Z M 145 309 L 139 312 L 132 323 L 132 455 L 134 460 L 145 468 Q 158 470 163 464 L 168 455 L 168 322 L 165 316 L 156 309 L 145 309 Z M 251 309 L 245 312 L 238 323 L 238 455 L 242 463 L 251 468 L 262 468 L 269 464 L 274 455 L 274 323 L 270 315 Q 265 307 251 309 Z M 357 309 L 351 312 L 344 322 L 344 455 L 348 463 L 357 468 Q 367 470 372 466 Q 378 462 380 455 L 380 323 L 376 315 L 368 309 L 357 309 Z " /></svg>