<svg width="512" height="512" version="1.1" xmlns="http://www.w3.org/2000/svg" desc="Created with imagetracer.js version 1.2.6" ><path fill="rgb(0,0,0)" stroke="rgb(0,0,0)" stroke-width="1" opacity="0" d="M 0 0 L 512 0 L 512 512 L 0 512 L 0 0 Z M 225 62 L 209 65 L 196 70 L 175 84 Q 159 97 151 118 L 147 131 L 146 142 L 98 142 Q 86 144 79 151 Q 70 157 68 170 L 67 171 L 29 171 L 27 172 Q 23 174 24 182 L 30 186 L 74 186 L 74 187 L 74 201 L 59 201 L 53 206 L 54 214 L 58 216 L 74 216 L 74 232 L 29 232 L 27 233 Q 22 235 24 243 L 31 247 L 67 247 L 67 415 L 68 417 L 71 419 L 75 420 L 112 420 Q 114 429 119 436 Q 127 447 145 450 Q 162 451 172 443 Q 182 436 186 422 L 187 420 L 381 420 L 388 436 Q 396 447 414 450 Q 431 451 441 443 Q 452 435 455 420 L 481 420 L 485 419 L 488 416 L 489 412 L 489 267 L 485 257 L 459 209 Q 452 199 439 195 L 363 195 L 363 175 L 362 170 L 355 156 Q 345 141 320 142 L 319 133 L 315 119 L 302 96 Q 288 78 266 68 L 249 63 L 225 62 Z " /><path fill="rgb(13,20,13)" stroke="rgb(13,20,13)" stroke-width="1" opacity="0.8627450980392157" d="M 186.5 93 L 185.5 95 L 186.5 93 Z " /><path fill="rgb(13,20,13)" stroke="rgb(13,20,13)" stroke-width="1" opacity="0.8627450980392157" d="M 281.5 95 L 286.5 101 L 281.5 95 Z " /><path fill="rgb(13,20,13)" stroke="rgb(13,20,13)" stroke-width="1" opacity="0.8627450980392157" d="M 177.5 102 L 176.5 104 L 177.5 102 Z " /><path fill="rgb(13,20,13)" stroke="rgb(13,20,13)" stroke-width="1" opacity="0.8627450980392157" d="M 228.5 110 L 226.5 113 L 228.5 110 Z " /><path fill="rgb(13,20,13)" stroke="rgb(13,20,13)" stroke-width="1" opacity="0.8627450980392157" d="M 225.5 114 L 226 151.5 L 225 151.5 L 225.5 114 Z " /><path fill="rgb(13,20,13)" stroke="rgb(13,20,13)" stroke-width="1" opacity="0.8627450980392157" d="M 305.5 145 L 306 153.5 L 305 153.5 L 305.5 145 Z " /><path fill="rgb(13,20,13)" stroke="rgb(13,20,13)" stroke-width="1" opacity="0.8627450980392157" d="M 240.5 146 L 241.5 148 L 240.5 146 Z " /><path fill="rgb(13,20,13)" stroke="rgb(13,20,13)" stroke-width="1" opacity="0.8627450980392157" d="M 246.5 151 L 249.5 155 L 246.5 151 Z " /><path fill="rgb(13,20,13)" stroke="rgb(13,20,13)" stroke-width="1" opacity="0.8627450980392157" d="M 226.5 153 L 230.5 158 L 226.5 153 Z " /><path fill="rgb(13,20,13)" stroke="rgb(13,20,13)" stroke-width="1" opacity="0.8627450980392157" d="M 253.5 157 L 256.5 161 L 253.5 157 Z " /><path fill="rgb(13,20,13)" stroke="rgb(13,20,13)" stroke-width="1" opacity="0.8627450980392157" d="M 319.5 158 L 320 160.5 L 319 160.5 L 319.5 158 Z " /><path fill="rgb(13,20,13)" stroke="rgb(13,20,13)" stroke-width="1" opacity="0.8627450980392157" d="M 235.5 161 L 238.5 165 L 235.5 161 Z " /><path fill="rgb(13,20,13)" stroke="rgb(13,20,13)" stroke-width="1" opacity="0.8627450980392157" d="M 86.5 164 L 85.5 166 L 86.5 164 Z " /><path fill="rgb(13,20,13)" stroke="rgb(13,20,13)" stroke-width="1" opacity="0.8627450980392157" d="M 261.5 164 L 265.5 169 L 261.5 164 Z " /><path fill="rgb(13,20,13)" stroke="rgb(13,20,13)" stroke-width="1" opacity="0.8627450980392157" d="M 242.5 167 L 245.5 171 L 242.5 167 Z " /><path fill="rgb(13,20,13)" stroke="rgb(13,20,13)" stroke-width="1" opacity="0.8627450980392157" d="M 250.5 174 L 253.5 178 L 250.5 174 Z " /><path fill="rgb(13,20,13)" stroke="rgb(13,20,13)" stroke-width="1" opacity="0.8627450980392157" d="M 257.5 179 L 261 179.5 L 257.5 180 L 257.5 179 Z " /><path fill="rgb(13,20,13)" stroke="rgb(13,20,13)" stroke-width="1" opacity="0.8627450980392157" d="M 176.5 195 L 177.5 197 L 176.5 195 Z " /><path fill="rgb(13,20,13)" stroke="rgb(13,20,13)" stroke-width="1" opacity="0.8627450980392157" d="M 287.5 197 L 280.5 205 L 287.5 197 Z " /><path fill="rgb(13,20,13)" stroke="rgb(13,20,13)" stroke-width="1" opacity="0.8627450980392157" d="M 304.5 199 L 303.5 201 L 304.5 199 Z " /><path fill="rgb(13,20,13)" stroke="rgb(13,20,13)" stroke-width="1" opacity="0.8627450980392157" d="M 74.5 201 L 135 201.5 L 74.5 202 L 74.5 201 Z " /><path fill="rgb(13,20,13)" stroke="rgb(13,20,13)" stroke-width="1" opacity="0.8627450980392157" d="M 162.5 201 L 163.5 203 L 162.5 201 Z " /><path fill="rgb(13,20,13)" stroke="rgb(13,20,13)" stroke-width="1" opacity="0.8627450980392157" d="M 301.5 203 L 300.5 205 L 301.5 203 Z " /><path fill="rgb(13,20,13)" stroke="rgb(13,20,13)" stroke-width="1" opacity="0.8627450980392157" d="M 166.5 206 L 169.5 210 L 166.5 206 Z " /><path fill="rgb(13,20,13)" stroke="rgb(13,20,13)" stroke-width="1" opacity="0.8627450980392157" d="M 276.5 207 L 275.5 209 L 276.5 207 Z " /><path fill="rgb(13,20,13)" stroke="rgb(13,20,13)" stroke-width="1" opacity="0.8627450980392157" d="M 363.5 209 L 391 209.5 L 363 210 L 362.5 404 L 362 210.5 L 363.5 209 Z " /><path fill="rgb(13,20,13)" stroke="rgb(13,20,13)" stroke-width="1" opacity="0.8627450980392157" d="M 295.5 210 L 294.5 212 L 295.5 210 Z " /><path fill="rgb(13,20,13)" stroke="rgb(13,20,13)" stroke-width="1" opacity="0.8627450980392157" d="M 405.5 210 L 406 258 L 467.5 258 L 468.5 257 L 467.5 259 L 406.5 259 L 405 257.5 L 405.5 210 Z " /><path fill="rgb(13,20,13)" stroke="rgb(13,20,13)" stroke-width="1" opacity="0.8627450980392157" d="M 172.5 212 L 176.5 217 L 172.5 212 Z " /><path fill="rgb(13,20,13)" stroke="rgb(13,20,13)" stroke-width="1" opacity="0.8627450980392157" d="M 138.5 213 L 137.5 215 L 138.5 213 Z " /><path fill="rgb(13,20,13)" stroke="rgb(13,20,13)" stroke-width="1" opacity="0.8627450980392157" d="M 444.5 214 L 445.5 216 L 444.5 214 Z " /><path fill="rgb(13,20,13)" stroke="rgb(13,20,13)" stroke-width="1" opacity="0.8627450980392157" d="M 287.5 217 L 286.5 219 L 287.5 217 Z " /><path fill="rgb(13,20,13)" stroke="rgb(13,20,13)" stroke-width="1" opacity="0.8627450980392157" d="M 283.5 220 L 282.5 222 L 283.5 220 Z " /><path fill="rgb(13,20,13)" stroke="rgb(13,20,13)" stroke-width="1" opacity="0.8627450980392157" d="M 280.5 222 L 279.5 224 L 280.5 222 Z " /><path fill="rgb(13,20,13)" stroke="rgb(13,20,13)" stroke-width="1" opacity="0.8627450980392157" d="M 108.5 233 L 109.5 235 L 108.5 233 Z " /><path fill="rgb(13,20,13)" stroke="rgb(13,20,13)" stroke-width="1" opacity="0.8627450980392157" d="M 223.5 236 L 227 236.5 L 223.5 237 L 223.5 236 Z " /><path fill="rgb(13,20,13)" stroke="rgb(13,20,13)" stroke-width="1" opacity="0.8627450980392157" d="M 239.5 236 L 243 236.5 L 239.5 237 L 239.5 236 Z " /><path fill="rgb(13,20,13)" stroke="rgb(13,20,13)" stroke-width="1" opacity="0.8627450980392157" d="M 110.5 241 L 111 242.5 L 107 245.5 L 110.5 241 Z " /><path fill="rgb(13,20,13)" stroke="rgb(13,20,13)" stroke-width="1" opacity="0.8627450980392157" d="M 82.5 246 L 106 246.5 L 82 247 L 81.5 332 L 81 247.5 L 82.5 246 Z " /><path fill="rgb(13,20,13)" stroke="rgb(13,20,13)" stroke-width="1" opacity="0.8627450980392157" d="M 330.5 331 L 348 331.5 L 330.5 332 L 330.5 331 Z " /><path fill="rgb(13,20,13)" stroke="rgb(13,20,13)" stroke-width="1" opacity="0.8627450980392157" d="M 81.5 346 L 82 404 L 112 404.5 L 82.5 405 L 81 403.5 L 81.5 346 Z " /><path fill="rgb(13,20,13)" stroke="rgb(13,20,13)" stroke-width="1" opacity="0.8627450980392157" d="M 473.5 359 L 474 404.5 L 473 404.5 L 473.5 359 Z " /><path fill="rgb(13,20,13)" stroke="rgb(13,20,13)" stroke-width="1" opacity="0.8627450980392157" d="M 144.5 374 L 155 374.5 L 144.5 375 L 144.5 374 Z " /><path fill="rgb(13,20,13)" stroke="rgb(13,20,13)" stroke-width="1" opacity="0.8627450980392157" d="M 413.5 374 L 423 374.5 L 413.5 375 L 413.5 374 Z " /><path fill="rgb(13,20,13)" stroke="rgb(13,20,13)" stroke-width="1" opacity="0.8627450980392157" d="M 168.5 379 L 169.5 381 L 168.5 379 Z " /><path fill="rgb(13,20,13)" stroke="rgb(13,20,13)" stroke-width="1" opacity="0.8627450980392157" d="M 171.5 381 L 172.5 383 L 171.5 381 Z " /><path fill="rgb(13,20,13)" stroke="rgb(13,20,13)" stroke-width="1" opacity="0.8627450980392157" d="M 440.5 381 L 441.5 383 L 440.5 381 Z " /><path fill="rgb(13,20,13)" stroke="rgb(13,20,13)" stroke-width="1" opacity="0.8627450980392157" d="M 125.5 382 L 123.5 385 L 125.5 382 Z " /><path fill="rgb(13,20,13)" stroke="rgb(13,20,13)" stroke-width="1" opacity="0.8627450980392157" d="M 394.5 382 L 388.5 389 L 394.5 382 Z " /><path fill="rgb(13,20,13)" stroke="rgb(13,20,13)" stroke-width="1" opacity="0.8627450980392157" d="M 121.5 386 L 119.5 389 L 121.5 386 Z " /><path fill="rgb(13,20,13)" stroke="rgb(13,20,13)" stroke-width="1" opacity="0.8627450980392157" d="M 178.5 388 L 179.5 390 L 178.5 388 Z " /><path fill="rgb(13,20,13)" stroke="rgb(13,20,13)" stroke-width="1" opacity="0.8627450980392157" d="M 447.5 388 L 448.5 390 L 447.5 388 Z " /><path fill="rgb(13,20,13)" stroke="rgb(13,20,13)" stroke-width="1" opacity="0.8627450980392157" d="M 430.5 392 L 431.5 394 L 430.5 392 Z " /><path fill="rgb(13,20,13)" stroke="rgb(13,20,13)" stroke-width="1" opacity="0.8627450980392157" d="M 167.5 398 L 168.5 400 L 167.5 398 Z " /><path fill="rgb(13,20,13)" stroke="rgb(13,20,13)" stroke-width="1" opacity="0.8627450980392157" d="M 436.5 398 L 437.5 400 L 436.5 398 Z " /><path fill="rgb(13,20,13)" stroke="rgb(13,20,13)" stroke-width="1" opacity="0.8627450980392157" d="M 186.5 404 L 348 404.5 L 186.5 405 L 186.5 404 Z " /><path fill="rgb(13,20,13)" stroke="rgb(13,20,13)" stroke-width="1" opacity="0.8627450980392157" d="M 135.5 430 L 136.5 432 L 135.5 430 Z " /><path fill="rgb(13,20,13)" stroke="rgb(13,20,13)" stroke-width="1" opacity="0.8627450980392157" d="M 404.5 430 L 405.5 432 L 404.5 430 Z " /><path fill="rgb(79,116,178)" stroke="rgb(79,116,178)" stroke-width="1" opacity="0.996078431372549" d="M 227.5 77 Q 246.6 76.4 259.5 82 Q 277.7 89.3 289 103.5 Q 298.5 114.5 303 130.5 L 305 140.5 L 305 158.5 Q 299.5 190 278.5 206 Q 268.5 214.5 254.5 219 L 240.5 222 L 226.5 222 L 205.5 217 L 192.5 210 L 181 201 L 169 184.5 L 163 169.5 L 161 161.5 L 161 138.5 Q 166.8 107.3 188.5 92 L 208.5 81 L 227.5 77 Z M 231 109 L 229 110 L 225 115 L 225 152 L 226 154 L 254 178 L 258 180 L 265 178 L 267 174 L 266 169 L 245 150 L 240 146 L 240 114 L 239 112 Q 237 108 231 109 Z " /><path fill="rgb(79,116,178)" stroke="rgb(79,116,178)" stroke-width="1" opacity="0.996078431372549" d="M 412.5 209 L 432 209.5 L 412.5 210 L 412.5 209 Z " /><path fill="rgb(79,116,178)" stroke="rgb(79,116,178)" stroke-width="1" opacity="0.996078431372549" d="M 142.5 390 Q 152 388.5 157.5 391 L 167 398.5 Q 172.8 404.2 171 417.5 Q 168.2 426.2 161.5 431 Q 155.3 435.8 142.5 434 Q 134.4 431.1 130 424.5 Q 124.8 418.7 127 405.5 Q 129.9 397.4 136.5 393 L 142.5 390 Z M 147 397 L 142 399 Q 136 402 134 410 L 134 415 L 138 423 L 146 427 L 153 427 L 159 424 L 164 416 L 164 410 L 160 401 L 152 397 L 147 397 Z " /><path fill="rgb(79,116,178)" stroke="rgb(79,116,178)" stroke-width="1" opacity="0.996078431372549" d="M 411.5 390 Q 421 388.5 426.5 391 L 436 398.5 Q 441.8 404.2 440 417.5 Q 437.5 426.5 430.5 431 Q 424.3 435.8 411.5 434 Q 403.4 431.1 399 424.5 Q 394.4 418.7 396 406.5 Q 398.4 397.4 405.5 393 L 411.5 390 Z M 416 397 L 411 399 Q 405 402 403 410 L 403 415 L 407 423 L 416 427 L 422 427 L 428 424 L 433 416 L 433 409 L 429 401 L 421 397 L 416 397 Z " /><path fill="rgb(226,120,49)" stroke="rgb(226,120,49)" stroke-width="1" opacity="0.984313725490196" d="M 98.5 157 L 102 157.5 L 98.5 158 L 98.5 157 Z " /><path fill="rgb(226,120,49)" stroke="rgb(226,120,49)" stroke-width="1" opacity="0.984313725490196" d="M 133 157 L 146 157 L 146 163.5 Q 152.9 198.6 176.5 217 Q 189.7 228.3 208.5 234 L 223.5 237 L 242.5 237 L 257.5 234 L 270.5 229 Q 285.3 221.8 296 210.5 Q 306.3 199.8 313 185.5 Q 318.7 173.1 320 157 L 330.5 157 L 332 158.5 L 330 174.5 L 323 193.5 Q 312.9 213.4 296.5 227 Q 281.4 239.4 260.5 246 L 246.5 249 L 219.5 249 Q 182.1 242.4 161 219.5 Q 137.4 197.3 133 157 Z " /><path fill="rgb(226,120,49)" stroke="rgb(226,120,49)" stroke-width="1" opacity="0.984313725490196" d="M 339.5 161 L 343.5 166 L 339.5 161 Z " /><path fill="rgb(226,120,49)" stroke="rgb(226,120,49)" stroke-width="1" opacity="0.984313725490196" d="M 347.5 175 L 348 331 L 330 330.5 L 331 329.5 L 335 298.5 L 336 297.5 L 339 273.5 L 342 260.5 L 342 254.5 L 347 228.5 L 347.5 175 Z " /><path fill="rgb(226,120,49)" stroke="rgb(226,120,49)" stroke-width="1" opacity="0.984313725490196" d="M 109.5 183 L 108.5 185 L 109.5 183 Z " /><path fill="rgb(226,120,49)" stroke="rgb(226,120,49)" stroke-width="1" opacity="0.984313725490196" d="M 140.5 207 L 141 209.5 L 140 209.5 L 140.5 207 Z " /><path fill="rgb(226,120,49)" stroke="rgb(226,120,49)" stroke-width="1" opacity="0.984313725490196" d="M 74.5 216 L 134 216.5 L 74.5 217 L 74.5 216 Z " /><path fill="rgb(226,120,49)" stroke="rgb(226,120,49)" stroke-width="1" opacity="0.984313725490196" d="M 74.5 231 L 105 231.5 L 74.5 232 L 74.5 231 Z " /><path fill="rgb(245,169,79)" stroke="rgb(245,169,79)" stroke-width="1" opacity="0.9019607843137255" d="M 102.5 157 L 133 157.5 L 102.5 158 L 102.5 157 Z " /><path fill="rgb(245,169,79)" stroke="rgb(245,169,79)" stroke-width="1" opacity="0.9019607843137255" d="M 332.5 158 L 333 160.5 L 332 160.5 L 332.5 158 Z " /><path fill="rgb(245,169,79)" stroke="rgb(245,169,79)" stroke-width="1" opacity="0.9019607843137255" d="M 133.5 161 L 134 164.5 L 133 164.5 L 133.5 161 Z " /><path fill="rgb(245,169,79)" stroke="rgb(245,169,79)" stroke-width="1" opacity="0.9019607843137255" d="M 331.5 165 L 332 167.5 L 331 167.5 L 331.5 165 Z " /><path fill="rgb(245,169,79)" stroke="rgb(245,169,79)" stroke-width="1" opacity="0.9019607843137255" d="M 84.5 170 L 105 170.5 L 84.5 171 L 84.5 170 Z " /><path fill="rgb(245,169,79)" stroke="rgb(245,169,79)" stroke-width="1" opacity="0.9019607843137255" d="M 135.5 172 L 136 174.5 L 135 174.5 L 135.5 172 Z " /><path fill="rgb(245,169,79)" stroke="rgb(245,169,79)" stroke-width="1" opacity="0.9019607843137255" d="M 142.5 192 L 144 194.5 L 142 193.5 L 142.5 192 Z " /><path fill="rgb(245,169,79)" stroke="rgb(245,169,79)" stroke-width="1" opacity="0.9019607843137255" d="M 322.5 194 L 322 195.5 L 320.5 198 L 321 196.5 L 322.5 194 Z " /><path fill="rgb(245,169,79)" stroke="rgb(245,169,79)" stroke-width="1" opacity="0.9019607843137255" d="M 147.5 202 L 148.5 204 L 147.5 202 Z " /><path fill="rgb(245,169,79)" stroke="rgb(245,169,79)" stroke-width="1" opacity="0.9019607843137255" d="M 149.5 205 L 150.5 207 L 149.5 205 Z " /><path fill="rgb(245,169,79)" stroke="rgb(245,169,79)" stroke-width="1" opacity="0.9019607843137255" d="M 314.5 207 L 313.5 209 L 314.5 207 Z " /><path fill="rgb(245,169,79)" stroke="rgb(245,169,79)" stroke-width="1" opacity="0.9019607843137255" d="M 152.5 209 L 153.5 211 L 152.5 209 Z " /><path fill="rgb(245,169,79)" stroke="rgb(245,169,79)" stroke-width="1" opacity="0.9019607843137255" d="M 312.5 210 L 310.5 213 L 312.5 210 Z " /><path fill="rgb(245,169,79)" stroke="rgb(245,169,79)" stroke-width="1" opacity="0.9019607843137255" d="M 155.5 213 L 160.5 219 L 155.5 213 Z " /><path fill="rgb(245,169,79)" stroke="rgb(245,169,79)" stroke-width="1" opacity="0.9019607843137255" d="M 307.5 216 L 299.5 225 L 307.5 216 Z " /><path fill="rgb(245,169,79)" stroke="rgb(245,169,79)" stroke-width="1" opacity="0.9019607843137255" d="M 164.5 222 L 168.5 227 L 164.5 222 Z " /><path fill="rgb(245,169,79)" stroke="rgb(245,169,79)" stroke-width="1" opacity="0.9019607843137255" d="M 346.5 226 L 347 228.5 L 346 228.5 L 346.5 226 Z " /><path fill="rgb(245,169,79)" stroke="rgb(245,169,79)" stroke-width="1" opacity="0.9019607843137255" d="M 295.5 227 L 294.5 229 L 295.5 227 Z " /><path fill="rgb(245,169,79)" stroke="rgb(245,169,79)" stroke-width="1" opacity="0.9019607843137255" d="M 171.5 228 L 173.5 231 L 171.5 228 Z " /><path fill="rgb(245,169,79)" stroke="rgb(245,169,79)" stroke-width="1" opacity="0.9019607843137255" d="M 291.5 230 L 290.5 232 L 291.5 230 Z " /><path fill="rgb(245,169,79)" stroke="rgb(245,169,79)" stroke-width="1" opacity="0.9019607843137255" d="M 175.5 231 L 176.5 233 L 175.5 231 Z " /><path fill="rgb(245,169,79)" stroke="rgb(245,169,79)" stroke-width="1" opacity="0.9019607843137255" d="M 178.5 233 L 179.5 235 L 178.5 233 Z " /><path fill="rgb(245,169,79)" stroke="rgb(245,169,79)" stroke-width="1" opacity="0.9019607843137255" d="M 345.5 233 L 346 235.5 L 345 235.5 L 345.5 233 Z " /><path fill="rgb(245,169,79)" stroke="rgb(245,169,79)" stroke-width="1" opacity="0.9019607843137255" d="M 285.5 234 L 284.5 236 L 285.5 234 Z " /><path fill="rgb(245,169,79)" stroke="rgb(245,169,79)" stroke-width="1" opacity="0.9019607843137255" d="M 183.5 236 L 184.5 238 L 183.5 236 Z " /><path fill="rgb(245,169,79)" stroke="rgb(245,169,79)" stroke-width="1" opacity="0.9019607843137255" d="M 344.5 239 L 345 241.5 L 344 241.5 L 344.5 239 Z " /><path fill="rgb(245,169,79)" stroke="rgb(245,169,79)" stroke-width="1" opacity="0.9019607843137255" d="M 109.5 244 L 108.5 246 L 109.5 244 Z " /><path fill="rgb(245,169,79)" stroke="rgb(245,169,79)" stroke-width="1" opacity="0.9019607843137255" d="M 343.5 245 L 344 247.5 L 343 247.5 L 343.5 245 Z " /><path fill="rgb(245,169,79)" stroke="rgb(245,169,79)" stroke-width="1" opacity="0.9019607843137255" d="M 216.5 248 L 219 248.5 L 216.5 249 L 216.5 248 Z " /><path fill="rgb(245,169,79)" stroke="rgb(245,169,79)" stroke-width="1" opacity="0.9019607843137255" d="M 247.5 248 L 250 248.5 L 247.5 249 L 247.5 248 Z " /><path fill="rgb(245,169,79)" stroke="rgb(245,169,79)" stroke-width="1" opacity="0.9019607843137255" d="M 223.5 249 L 243 249.5 L 223.5 250 L 223.5 249 Z " /><path fill="rgb(245,169,79)" stroke="rgb(245,169,79)" stroke-width="1" opacity="0.9019607843137255" d="M 342.5 251 L 343 253.5 L 342 253.5 L 342.5 251 Z " /><path fill="rgb(245,169,79)" stroke="rgb(245,169,79)" stroke-width="1" opacity="0.9019607843137255" d="M 341.5 258 L 342 260.5 L 341 260.5 L 341.5 258 Z " /><path fill="rgb(245,169,79)" stroke="rgb(245,169,79)" stroke-width="1" opacity="0.9019607843137255" d="M 340.5 264 L 341 266.5 L 340 266.5 L 340.5 264 Z " /><path fill="rgb(245,169,79)" stroke="rgb(245,169,79)" stroke-width="1" opacity="0.9019607843137255" d="M 339.5 270 L 340 272.5 L 339 272.5 L 339.5 270 Z " /><path fill="rgb(245,169,79)" stroke="rgb(245,169,79)" stroke-width="1" opacity="0.9019607843137255" d="M 338.5 277 L 339 279.5 L 338 279.5 L 338.5 277 Z " /><path fill="rgb(245,169,79)" stroke="rgb(245,169,79)" stroke-width="1" opacity="0.9019607843137255" d="M 337.5 283 L 338 285.5 L 337 285.5 L 337.5 283 Z " /><path fill="rgb(245,169,79)" stroke="rgb(245,169,79)" stroke-width="1" opacity="0.9019607843137255" d="M 336.5 289 L 337 291.5 L 336 291.5 L 336.5 289 Z " /><path fill="rgb(245,169,79)" stroke="rgb(245,169,79)" stroke-width="1" opacity="0.9019607843137255" d="M 335.5 295 L 336 297.5 L 335 297.5 L 335.5 295 Z " /><path fill="rgb(245,169,79)" stroke="rgb(245,169,79)" stroke-width="1" opacity="0.9019607843137255" d="M 334.5 302 L 335 304.5 L 334 304.5 L 334.5 302 Z " /><path fill="rgb(245,169,79)" stroke="rgb(245,169,79)" stroke-width="1" opacity="0.9019607843137255" d="M 333.5 308 L 334 310.5 L 333 310.5 L 333.5 308 Z " /><path fill="rgb(245,169,79)" stroke="rgb(245,169,79)" stroke-width="1" opacity="0.9019607843137255" d="M 332.5 314 L 333 316.5 L 332 316.5 L 332.5 314 Z " /><path fill="rgb(245,169,79)" stroke="rgb(245,169,79)" stroke-width="1" opacity="0.9019607843137255" d="M 331.5 321 L 332 323.5 L 331 323.5 L 331.5 321 Z " /><path fill="rgb(245,169,79)" stroke="rgb(245,169,79)" stroke-width="1" opacity="0.9019607843137255" d="M 330.5 327 L 331 329.5 L 330 329.5 L 330.5 327 Z " /><path fill="rgb(252,181,86)" stroke="rgb(252,181,86)" stroke-width="1" opacity="0.996078431372549" d="M 96.5 158 L 132.5 158 Q 133.8 158.3 133 164.5 Q 141 205.5 168.5 227 Q 183 239.5 203.5 246 L 223.5 250 L 242.5 250 L 258.5 247 Q 273 243 284.5 236 Q 297.9 227.9 308 216.5 L 324 192.5 L 330 176.5 L 333 159 Q 340.3 160.4 344 166.5 L 347 172.5 L 347 225.5 L 346 226.5 L 346 232.5 L 342 251.5 L 342 257.5 L 339 270.5 L 339 276.5 L 338 277.5 L 330 331 L 82 331 L 82 247 L 106.5 247 L 110 244.5 L 112 237.5 L 107.5 232 L 105.5 231 L 74 231 L 74 217.5 L 74.5 217 L 134.5 217 L 140 212.5 L 141 206.5 L 137.5 202 L 135.5 201 L 74 201 L 74 186 L 106.5 186 L 111 182.5 L 112 176.5 L 107.5 171 L 104.5 170 L 84 169.5 L 89.5 162 L 96.5 158 Z " /><path fill="rgb(46,146,71)" stroke="rgb(46,146,71)" stroke-width="1" opacity="0.996078431372549" d="M 224.5 77 L 227 77.5 L 224.5 78 L 224.5 77 Z " /><path fill="rgb(46,146,71)" stroke="rgb(46,146,71)" stroke-width="1" opacity="0.996078431372549" d="M 239.5 77 L 242 77.5 L 239.5 78 L 239.5 77 Z " /><path fill="rgb(46,146,71)" stroke="rgb(46,146,71)" stroke-width="1" opacity="0.996078431372549" d="M 184.5 95 L 178.5 102 L 184.5 95 Z " /><path fill="rgb(46,146,71)" stroke="rgb(46,146,71)" stroke-width="1" opacity="0.996078431372549" d="M 237.5 110 L 238.5 112 L 237.5 110 Z " /><path fill="rgb(46,146,71)" stroke="rgb(46,146,71)" stroke-width="1" opacity="0.996078431372549" d="M 160.5 143 L 161 155.5 L 160 155.5 L 160.5 143 Z " /><path fill="rgb(46,146,71)" stroke="rgb(46,146,71)" stroke-width="1" opacity="0.996078431372549" d="M 88.5 162 L 87.5 164 L 88.5 162 Z " /><path fill="rgb(46,146,71)" stroke="rgb(46,146,71)" stroke-width="1" opacity="0.996078431372549" d="M 290.5 193 L 289.5 195 L 290.5 193 Z " /><path fill="rgb(46,146,71)" stroke="rgb(46,146,71)" stroke-width="1" opacity="0.996078431372549" d="M 178.5 197 L 180.5 200 L 178.5 197 Z " /><path fill="rgb(46,146,71)" stroke="rgb(46,146,71)" stroke-width="1" opacity="0.996078431372549" d="M 182.5 201 L 185.5 205 L 182.5 201 Z " /><path fill="rgb(46,146,71)" stroke="rgb(46,146,71)" stroke-width="1" opacity="0.996078431372549" d="M 406.5 209 L 412 209.5 L 406.5 210 L 406.5 209 Z " /><path fill="rgb(46,146,71)" stroke="rgb(46,146,71)" stroke-width="1" opacity="0.996078431372549" d="M 363 210 L 391 210 L 391 267.5 L 395.5 273 L 472.5 273 L 474 274.5 L 474 358.5 L 473 359.5 L 473 405 L 456.5 405 L 455 403.5 Q 451.6 388.4 440.5 381 Q 431.2 373.3 413.5 374 Q 396.8 377.3 388 388.5 L 382 399.5 L 381 405 L 363.5 405 L 363 404.5 L 363 210 Z " /><path fill="rgb(46,146,71)" stroke="rgb(46,146,71)" stroke-width="1" opacity="0.996078431372549" d="M 223.5 221 L 226 221.5 L 223.5 222 L 223.5 221 Z " /><path fill="rgb(46,146,71)" stroke="rgb(46,146,71)" stroke-width="1" opacity="0.996078431372549" d="M 82.5 331 L 330 331.5 L 82.5 332 L 82.5 331 Z " /><path fill="rgb(46,146,71)" stroke="rgb(46,146,71)" stroke-width="1" opacity="0.996078431372549" d="M 82 346 L 326.5 346 L 327.5 347 L 328.5 346 L 346.5 346 L 348 347.5 L 348 404 L 186.5 404 L 186 401.5 Q 181.7 388.3 171.5 381 Q 162.2 373.3 144.5 374 Q 127.3 376.8 119 388.5 Q 113.4 394.7 112 404 L 82 404 L 82 346 Z " /><path fill="rgb(46,146,71)" stroke="rgb(46,146,71)" stroke-width="1" opacity="0.996078431372549" d="M 145.5 389 L 153 389.5 L 145.5 390 L 145.5 389 Z " /><path fill="rgb(46,146,71)" stroke="rgb(46,146,71)" stroke-width="1" opacity="0.996078431372549" d="M 414.5 389 L 422 389.5 L 414.5 390 L 414.5 389 Z " /><path fill="rgb(46,146,71)" stroke="rgb(46,146,71)" stroke-width="1" opacity="0.996078431372549" d="M 160.5 392 L 161.5 394 L 160.5 392 Z " /><path fill="rgb(46,146,71)" stroke="rgb(46,146,71)" stroke-width="1" opacity="0.996078431372549" d="M 429.5 392 L 430.5 394 L 429.5 392 Z " /><path fill="rgb(46,146,71)" stroke="rgb(46,146,71)" stroke-width="1" opacity="0.996078431372549" d="M 134.5 394 L 131.5 398 L 134.5 394 Z " /><path fill="rgb(46,146,71)" stroke="rgb(46,146,71)" stroke-width="1" opacity="0.996078431372549" d="M 163.5 394 L 166.5 398 L 163.5 394 Z " /><path fill="rgb(46,146,71)" stroke="rgb(46,146,71)" stroke-width="1" opacity="0.996078431372549" d="M 403.5 394 L 400.5 398 L 403.5 394 Z " /><path fill="rgb(46,146,71)" stroke="rgb(46,146,71)" stroke-width="1" opacity="0.996078431372549" d="M 432.5 394 L 435.5 398 L 432.5 394 Z " /><path fill="rgb(46,146,71)" stroke="rgb(46,146,71)" stroke-width="1" opacity="0.996078431372549" d="M 167.5 399 L 168.5 401 L 167.5 399 Z " /><path fill="rgb(46,146,71)" stroke="rgb(46,146,71)" stroke-width="1" opacity="0.996078431372549" d="M 436.5 399 L 437.5 401 L 436.5 399 Z " /><path fill="rgb(46,146,71)" stroke="rgb(46,146,71)" stroke-width="1" opacity="0.996078431372549" d="M 440.5 407 L 441 416.5 L 440 416.5 L 440.5 407 Z " /><path fill="rgb(46,146,71)" stroke="rgb(46,146,71)" stroke-width="1" opacity="0.996078431372549" d="M 126.5 408 L 127 415.5 L 126 415.5 L 126.5 408 Z " /><path fill="rgb(46,146,71)" stroke="rgb(46,146,71)" stroke-width="1" opacity="0.996078431372549" d="M 171.5 408 L 172 415.5 L 171 415.5 L 171.5 408 Z " /><path fill="rgb(46,146,71)" stroke="rgb(46,146,71)" stroke-width="1" opacity="0.996078431372549" d="M 395.5 408 L 396 415.5 L 395 415.5 L 395.5 408 Z " /><path fill="rgb(46,146,71)" stroke="rgb(46,146,71)" stroke-width="1" opacity="0.996078431372549" d="M 168.5 423 L 168 424.5 L 162.5 431 L 167 425.5 L 168.5 423 Z " /><path fill="rgb(46,146,71)" stroke="rgb(46,146,71)" stroke-width="1" opacity="0.996078431372549" d="M 436.5 425 L 431.5 431 L 436.5 425 Z " /><path fill="rgb(46,146,71)" stroke="rgb(46,146,71)" stroke-width="1" opacity="0.996078431372549" d="M 131.5 426 L 134.5 430 L 131.5 426 Z " /><path fill="rgb(46,146,71)" stroke="rgb(46,146,71)" stroke-width="1" opacity="0.996078431372549" d="M 400.5 426 L 403.5 430 L 400.5 426 Z " /><path fill="rgb(46,146,71)" stroke="rgb(46,146,71)" stroke-width="1" opacity="0.996078431372549" d="M 145.5 434 L 153 434.5 L 145.5 435 L 145.5 434 Z " /><path fill="rgb(46,146,71)" stroke="rgb(46,146,71)" stroke-width="1" opacity="0.996078431372549" d="M 414.5 434 L 422 434.5 L 414.5 435 L 414.5 434 Z " /><path fill="rgb(191,209,226)" stroke="rgb(191,209,226)" stroke-width="1" opacity="0.9921568627450981" d="M 406 210 L 435.5 210 L 446 216.5 L 468 257.5 L 406 258 L 406 210 Z " /><path fill="rgb(191,209,226)" stroke="rgb(191,209,226)" stroke-width="1" opacity="0.9921568627450981" d="M 146.5 397 L 151.5 397 L 160 401 L 164 409.5 L 164 415.5 L 158.5 424 L 152.5 427 L 145.5 427 L 138 423 L 134 414.5 L 134 409.5 Q 135.8 402.3 141.5 399 L 146.5 397 Z " /><path fill="rgb(191,209,226)" stroke="rgb(191,209,226)" stroke-width="1" opacity="0.9921568627450981" d="M 415.5 397 L 420.5 397 L 429 401 L 433 408.5 L 433 415.5 L 427.5 424 L 421.5 427 L 415.5 427 L 407 423 L 403 414.5 L 403 409.5 Q 404.8 402.3 410.5 399 L 415.5 397 Z " /><path fill="rgb(0,0,0)" stroke="rgb(0,0,0)" stroke-width="1" opacity="0.996078431372549" d="M 224.5 62 L 242 62.5 L 224.5 63 L 224.5 62 Z " /><path fill="rgb(0,0,0)" stroke="rgb(0,0,0)" stroke-width="1" opacity="0.996078431372549" d="M 217.5 63 L 220 63.5 L 217.5 64 L 217.5 63 Z " /><path fill="rgb(0,0,0)" stroke="rgb(0,0,0)" stroke-width="1" opacity="0.996078431372549" d="M 245.5 63 L 249 63.5 L 245.5 64 L 245.5 63 Z " /><path fill="rgb(0,0,0)" stroke="rgb(0,0,0)" stroke-width="1" opacity="0.996078431372549" d="M 212.5 64 L 215 64.5 L 212.5 65 L 212.5 64 Z " /><path fill="rgb(0,0,0)" stroke="rgb(0,0,0)" stroke-width="1" opacity="0.996078431372549" d="M 208.5 65 L 211 65.5 L 208.5 66 L 208.5 65 Z " /><path fill="rgb(0,0,0)" stroke="rgb(0,0,0)" stroke-width="1" opacity="0.996078431372549" d="M 264.5 68 L 268 69.5 L 266.5 70 L 264.5 68 Z " /><path fill="rgb(0,0,0)" stroke="rgb(0,0,0)" stroke-width="1" opacity="0.996078431372549" d="M 195.5 70 L 197 70.5 L 190.5 74 L 191.5 72 L 195.5 70 Z " /><path fill="rgb(0,0,0)" stroke="rgb(0,0,0)" stroke-width="1" opacity="0.996078431372549" d="M 275.5 73 L 279 75.5 L 277.5 75 L 275.5 73 Z " /><path fill="rgb(0,0,0)" stroke="rgb(0,0,0)" stroke-width="1" opacity="0.996078431372549" d="M 186.5 75 L 185.5 77 L 186.5 75 Z " /><path fill="rgb(0,0,0)" stroke="rgb(0,0,0)" stroke-width="1" opacity="0.996078431372549" d="M 280.5 76 L 281.5 78 L 280.5 76 Z " /><path fill="rgb(0,0,0)" stroke="rgb(0,0,0)" stroke-width="1" opacity="0.996078431372549" d="M 183.5 77 L 181.5 80 L 176.5 84 L 180.5 79 L 183.5 77 Z " /><path fill="rgb(0,0,0)" stroke="rgb(0,0,0)" stroke-width="1" opacity="0.996078431372549" d="M 283.5 78 L 285.5 81 L 283.5 78 Z " /><path fill="rgb(0,0,0)" stroke="rgb(0,0,0)" stroke-width="1" opacity="0.996078431372549" d="M 287.5 81 L 304 98.5 L 301 96.5 L 287.5 81 Z " /><path fill="rgb(0,0,0)" stroke="rgb(0,0,0)" stroke-width="1" opacity="0.996078431372549" d="M 174.5 84 L 167.5 92 L 174.5 84 Z " /><path fill="rgb(0,0,0)" stroke="rgb(0,0,0)" stroke-width="1" opacity="0.996078431372549" d="M 166.5 93 L 163.5 97 L 166.5 93 Z " /><path fill="rgb(0,0,0)" stroke="rgb(0,0,0)" stroke-width="1" opacity="0.996078431372549" d="M 162.5 98 L 161 100.5 L 157.5 106 L 158 104.5 L 162.5 98 Z " /><path fill="rgb(0,0,0)" stroke="rgb(0,0,0)" stroke-width="1" opacity="0.996078431372549" d="M 304.5 100 L 305.5 102 L 304.5 100 Z " /><path fill="rgb(0,0,0)" stroke="rgb(0,0,0)" stroke-width="1" opacity="0.996078431372549" d="M 306.5 103 L 307.5 105 L 306.5 103 Z " /><path fill="rgb(0,0,0)" stroke="rgb(0,0,0)" stroke-width="1" opacity="0.996078431372549" d="M 309.5 108 L 312 112.5 L 311 112.5 L 309.5 108 Z " /><path fill="rgb(0,0,0)" stroke="rgb(0,0,0)" stroke-width="1" opacity="0.996078431372549" d="M 236.5 110 L 238.5 113 L 236.5 110 Z " /><path fill="rgb(0,0,0)" stroke="rgb(0,0,0)" stroke-width="1" opacity="0.996078431372549" d="M 147.5 130 L 148 132.5 L 147 132.5 L 147.5 130 Z " /><path fill="rgb(0,0,0)" stroke="rgb(0,0,0)" stroke-width="1" opacity="0.996078431372549" d="M 318.5 132 L 319 134.5 L 318 134.5 L 318.5 132 Z " /><path fill="rgb(0,0,0)" stroke="rgb(0,0,0)" stroke-width="1" opacity="0.996078431372549" d="M 146.5 135 L 147 138.5 L 146 138.5 L 146.5 135 Z " /><path fill="rgb(0,0,0)" stroke="rgb(0,0,0)" stroke-width="1" opacity="0.996078431372549" d="M 319.5 138 L 320 142 L 332 142.5 L 319 143 L 319.5 138 Z " /><path fill="rgb(0,0,0)" stroke="rgb(0,0,0)" stroke-width="1" opacity="0.996078431372549" d="M 97.5 142 L 146 142.5 L 97.5 143 L 97.5 142 Z " /><path fill="rgb(0,0,0)" stroke="rgb(0,0,0)" stroke-width="1" opacity="0.996078431372549" d="M 334.5 143 L 337 143.5 L 334.5 144 L 334.5 143 Z " /><path fill="rgb(0,0,0)" stroke="rgb(0,0,0)" stroke-width="1" opacity="0.996078431372549" d="M 87.5 145 L 89 145.5 L 84.5 148 L 85.5 146 L 87.5 145 Z " /><path fill="rgb(0,0,0)" stroke="rgb(0,0,0)" stroke-width="1" opacity="0.996078431372549" d="M 343.5 146 L 355 155.5 L 348.5 150 Q 343.9 148.8 343.5 146 Z " /><path fill="rgb(0,0,0)" stroke="rgb(0,0,0)" stroke-width="1" opacity="0.996078431372549" d="M 82.5 148 L 80.5 151 L 82.5 148 Z " /><path fill="rgb(0,0,0)" stroke="rgb(0,0,0)" stroke-width="1" opacity="0.996078431372549" d="M 242.5 148 L 245.5 152 L 242.5 148 Z " /><path fill="rgb(0,0,0)" stroke="rgb(0,0,0)" stroke-width="1" opacity="0.996078431372549" d="M 78.5 151 L 76.5 154 L 78.5 151 Z " /><path fill="rgb(0,0,0)" stroke="rgb(0,0,0)" stroke-width="1" opacity="0.996078431372549" d="M 75.5 155 L 73.5 158 L 75.5 155 Z " /><path fill="rgb(0,0,0)" stroke="rgb(0,0,0)" stroke-width="1" opacity="0.996078431372549" d="M 250.5 155 L 252.5 158 L 250.5 155 Z " /><path fill="rgb(0,0,0)" stroke="rgb(0,0,0)" stroke-width="1" opacity="0.996078431372549" d="M 231.5 157 L 234.5 161 L 231.5 157 Z " /><path fill="rgb(0,0,0)" stroke="rgb(0,0,0)" stroke-width="1" opacity="0.996078431372549" d="M 355.5 157 L 360 164.5 L 359 164.5 L 355.5 157 Z " /><path fill="rgb(0,0,0)" stroke="rgb(0,0,0)" stroke-width="1" opacity="0.996078431372549" d="M 72.5 159 L 71.5 161 L 72.5 159 Z " /><path fill="rgb(0,0,0)" stroke="rgb(0,0,0)" stroke-width="1" opacity="0.996078431372549" d="M 257.5 161 L 260.5 165 L 257.5 161 Z " /><path fill="rgb(0,0,0)" stroke="rgb(0,0,0)" stroke-width="1" opacity="0.996078431372549" d="M 239.5 164 L 241.5 167 L 239.5 164 Z " /><path fill="rgb(0,0,0)" stroke="rgb(0,0,0)" stroke-width="1" opacity="0.996078431372549" d="M 246.5 170 L 249.5 174 L 246.5 170 Z " /><path fill="rgb(0,0,0)" stroke="rgb(0,0,0)" stroke-width="1" opacity="0.996078431372549" d="M 28.5 171 L 30 171.5 L 25.5 174 L 26.5 172 L 28.5 171 Z " /><path fill="rgb(0,0,0)" stroke="rgb(0,0,0)" stroke-width="1" opacity="0.996078431372549" d="M 362.5 174 L 363 194.5 L 362 194.5 L 362.5 174 Z " /><path fill="rgb(0,0,0)" stroke="rgb(0,0,0)" stroke-width="1" opacity="0.996078431372549" d="M 264.5 176 L 263.5 178 L 264.5 176 Z " /><path fill="rgb(0,0,0)" stroke="rgb(0,0,0)" stroke-width="1" opacity="0.996078431372549" d="M 24.5 181 L 27.5 185 L 24.5 181 Z " /><path fill="rgb(0,0,0)" stroke="rgb(0,0,0)" stroke-width="1" opacity="0.996078431372549" d="M 109.5 182 L 108.5 184 L 109.5 182 Z " /><path fill="rgb(0,0,0)" stroke="rgb(0,0,0)" stroke-width="1" opacity="0.996078431372549" d="M 29.5 185 L 104 185.5 L 29.5 186 L 29.5 185 Z " /><path fill="rgb(0,0,0)" stroke="rgb(0,0,0)" stroke-width="1" opacity="0.996078431372549" d="M 441.5 196 L 445 197.5 L 443.5 198 L 441.5 196 Z " /><path fill="rgb(0,0,0)" stroke="rgb(0,0,0)" stroke-width="1" opacity="0.996078431372549" d="M 446.5 198 L 459 208.5 L 460 210.5 L 458 209.5 L 451.5 202 Q 446.9 200.8 446.5 198 Z " /><path fill="rgb(0,0,0)" stroke="rgb(0,0,0)" stroke-width="1" opacity="0.996078431372549" d="M 58.5 201 L 74 201.5 L 58.5 202 L 58.5 201 Z " /><path fill="rgb(0,0,0)" stroke="rgb(0,0,0)" stroke-width="1" opacity="0.996078431372549" d="M 56.5 202 L 54 205.5 L 53.5 207 L 53 205.5 L 56.5 202 Z " /><path fill="rgb(0,0,0)" stroke="rgb(0,0,0)" stroke-width="1" opacity="0.996078431372549" d="M 137.5 203 L 138.5 205 L 137.5 203 Z " /><path fill="rgb(0,0,0)" stroke="rgb(0,0,0)" stroke-width="1" opacity="0.996078431372549" d="M 54.5 213 L 55.5 215 L 54.5 213 Z " /><path fill="rgb(0,0,0)" stroke="rgb(0,0,0)" stroke-width="1" opacity="0.996078431372549" d="M 461.5 214 L 466 221.5 L 464 220.5 L 461.5 214 Z " /><path fill="rgb(0,0,0)" stroke="rgb(0,0,0)" stroke-width="1" opacity="0.996078431372549" d="M 468.5 227 L 473 234.5 L 471 233.5 L 468.5 227 Z " /><path fill="rgb(0,0,0)" stroke="rgb(0,0,0)" stroke-width="1" opacity="0.996078431372549" d="M 26.5 233 L 25 235.5 L 24.5 237 L 24 235.5 L 26.5 233 Z " /><path fill="rgb(0,0,0)" stroke="rgb(0,0,0)" stroke-width="1" opacity="0.996078431372549" d="M 24.5 241 L 28 245.5 L 24 242.5 L 24.5 241 Z " /><path fill="rgb(0,0,0)" stroke="rgb(0,0,0)" stroke-width="1" opacity="0.996078431372549" d="M 476.5 242 L 480 247.5 L 478 246.5 L 476.5 242 Z " /><path fill="rgb(0,0,0)" stroke="rgb(0,0,0)" stroke-width="1" opacity="0.996078431372549" d="M 30.5 246 L 67 246.5 L 30.5 247 L 30.5 246 Z " /><path fill="rgb(0,0,0)" stroke="rgb(0,0,0)" stroke-width="1" opacity="0.996078431372549" d="M 483.5 255 L 487 260.5 L 485 259.5 L 483.5 255 Z " /><path fill="rgb(0,0,0)" stroke="rgb(0,0,0)" stroke-width="1" opacity="0.996078431372549" d="M 488.5 266 L 489 411.5 L 488 411.5 L 488.5 266 Z " /><path fill="rgb(0,0,0)" stroke="rgb(0,0,0)" stroke-width="1" opacity="0.996078431372549" d="M 487.5 414 L 488 415.5 L 483.5 419 L 483.5 418 L 487 415.5 L 487.5 414 Z " /><path fill="rgb(0,0,0)" stroke="rgb(0,0,0)" stroke-width="1" opacity="0.996078431372549" d="M 68.5 416 L 72 418.5 L 70.5 419 L 68.5 416 Z " /><path fill="rgb(0,0,0)" stroke="rgb(0,0,0)" stroke-width="1" opacity="0.996078431372549" d="M 74.5 419 L 112.5 419 L 113 421.5 L 112 421.5 L 111.5 420 L 74.5 420 L 74.5 419 Z " /><path fill="rgb(0,0,0)" stroke="rgb(0,0,0)" stroke-width="1" opacity="0.996078431372549" d="M 186.5 419 L 381.5 419 L 382 421.5 L 381 421.5 L 380.5 420 L 186 420 L 185.5 422 L 185 420.5 L 186.5 419 Z " /><path fill="rgb(0,0,0)" stroke="rgb(0,0,0)" stroke-width="1" opacity="0.996078431372549" d="M 455.5 419 L 481 419.5 L 455 420 L 454.5 423 L 454 420.5 L 455.5 419 Z " /><path fill="rgb(0,0,0)" stroke="rgb(0,0,0)" stroke-width="1" opacity="0.996078431372549" d="M 453.5 424 L 454 425.5 L 452.5 428 L 452 426.5 L 453.5 424 Z " /><path fill="rgb(0,0,0)" stroke="rgb(0,0,0)" stroke-width="1" opacity="0.996078431372549" d="M 183.5 426 L 184 427.5 Q 179.7 437.2 171.5 443 L 163.5 447 L 163.5 446 Q 173.5 442.5 179 434.5 L 183.5 426 Z " /><path fill="rgb(0,0,0)" stroke="rgb(0,0,0)" stroke-width="1" opacity="0.996078431372549" d="M 115.5 428 L 117 430.5 L 115 429.5 L 115.5 428 Z " /><path fill="rgb(0,0,0)" stroke="rgb(0,0,0)" stroke-width="1" opacity="0.996078431372549" d="M 451.5 429 L 451 430.5 Q 447.7 438.7 440.5 443 L 432.5 447 L 432.5 446 Q 442.5 442.5 448 434.5 L 451.5 429 Z " /><path fill="rgb(0,0,0)" stroke="rgb(0,0,0)" stroke-width="1" opacity="0.996078431372549" d="M 117.5 432 L 118.5 434 L 117.5 432 Z " /><path fill="rgb(0,0,0)" stroke="rgb(0,0,0)" stroke-width="1" opacity="0.996078431372549" d="M 386.5 432 L 387.5 434 L 386.5 432 Z " /><path fill="rgb(0,0,0)" stroke="rgb(0,0,0)" stroke-width="1" opacity="0.996078431372549" d="M 119.5 435 L 125.5 442 L 119.5 435 Z " /><path fill="rgb(0,0,0)" stroke="rgb(0,0,0)" stroke-width="1" opacity="0.996078431372549" d="M 388.5 435 L 394.5 442 L 388.5 435 Z " /><path fill="rgb(0,0,0)" stroke="rgb(0,0,0)" stroke-width="1" opacity="0.996078431372549" d="M 127.5 442 L 128.5 444 L 127.5 442 Z " /><path fill="rgb(0,0,0)" stroke="rgb(0,0,0)" stroke-width="1" opacity="0.996078431372549" d="M 396.5 442 L 397.5 444 L 396.5 442 Z " /><path fill="rgb(0,0,0)" stroke="rgb(0,0,0)" stroke-width="1" opacity="0.996078431372549" d="M 130.5 444 L 135 446.5 L 133.5 447 L 130.5 444 Z " /><path fill="rgb(0,0,0)" stroke="rgb(0,0,0)" stroke-width="1" opacity="0.996078431372549" d="M 399.5 444 L 404 446.5 L 402.5 447 L 399.5 444 Z " /><path fill="rgb(0,0,0)" stroke="rgb(0,0,0)" stroke-width="1" opacity="0.996078431372549" d="M 144.5 449 L 155 449.5 L 144.5 450 L 144.5 449 Z " /><path fill="rgb(0,0,0)" stroke="rgb(0,0,0)" stroke-width="1" opacity="0.996078431372549" d="M 413.5 449 L 424 449.5 L 413.5 450 L 413.5 449 Z " /><path fill="rgb(0,0,0)" stroke="rgb(0,0,0)" stroke-width="1" opacity="1" d="M 220.5 63 L 244.5 63 L 254.5 65 L 268.5 70 Q 288.3 79.3 301 95.5 L 314 117.5 L 318 130.5 L 319 143 Q 332 141.3 340.5 145 Q 349.3 149.3 355 156.5 L 362 171.5 L 362 195 L 436.5 195 Q 450.9 198.1 458 208.5 L 488 264.5 L 488 413.5 L 484.5 418 L 482.5 419 L 455.5 419 L 454 420.5 L 452 428.5 L 440.5 442 L 425.5 449 L 410.5 449 Q 395.9 445.1 388 434.5 Q 382.4 428.6 382 419 L 186.5 419 L 185 420.5 Q 181.9 434.9 171.5 442 L 156.5 449 L 141.5 449 Q 126.9 445.1 119 434.5 Q 113.4 428.6 113 419 L 72.5 419 L 68 415.5 L 67 413.5 L 67 246 L 28.5 246 L 25 242.5 L 24 237.5 L 27.5 233 L 29.5 232 L 105.5 232 L 110 235.5 L 111 240.5 L 107.5 245 L 105.5 246 L 81 246 L 81 331.5 L 81.5 332 L 348 332 L 348 173.5 Q 345.5 164.4 338.5 160 Q 333 155 320.5 157 L 319 158.5 L 317 173.5 L 309 192.5 Q 300.8 206.8 288.5 217 Q 276.4 227.4 259.5 233 L 246.5 236 L 227.5 237 L 226.5 236 L 213.5 235 L 200.5 231 Q 182.5 223.5 170 210.5 Q 159.7 199.8 153 185.5 L 148 171.5 L 146 157 L 97.5 157 Q 89.5 159.5 85 165.5 L 83 171 L 104.5 171 L 109 173 L 111 179.5 L 106.5 185 L 28.5 185 L 24 180.5 Q 23.2 174.7 26.5 173 L 30.5 171 L 68 171 Q 70.3 158.1 79.5 151 L 95.5 143 L 146 143 Q 150.9 104.1 175.5 84 Q 192.6 68.1 220.5 63 Z M 223 77 L 205 82 L 187 93 Q 175 102 168 116 L 163 128 L 160 142 L 160 158 L 162 169 Q 167 184 176 196 Q 192 216 222 222 L 244 222 L 253 220 Q 269 215 281 205 Q 293 194 300 179 L 304 167 L 305 155 L 306 154 L 305 138 L 302 126 Q 297 111 287 101 Q 276 88 259 81 L 244 77 L 223 77 Z M 364 209 L 362 211 L 362 404 L 364 405 L 381 405 L 387 391 Q 395 379 411 375 L 427 375 L 443 383 Q 452 391 455 405 L 474 405 L 474 405 L 474 273 L 397 273 L 395 272 L 391 268 L 391 209 L 364 209 Z M 407 209 L 405 211 L 405 258 L 407 259 L 468 259 L 469 258 L 446 216 L 435 209 L 407 209 Z M 81 346 L 81 404 L 83 405 L 112 405 L 116 394 L 122 385 L 131 379 L 141 375 L 158 375 L 174 383 Q 183 390 186 404 L 187 405 L 348 405 L 348 347 L 348 346 L 81 346 Z M 145 389 L 136 393 Q 128 398 126 408 Q 125 420 130 426 Q 134 432 143 435 Q 155 437 162 432 Q 169 427 172 418 Q 174 405 169 400 L 158 390 L 145 389 Z M 414 389 L 405 393 Q 397 398 395 408 L 395 417 L 399 426 Q 403 432 412 435 Q 424 437 431 432 Q 438 427 441 418 Q 443 405 438 400 Q 434 393 427 390 Q 422 388 414 389 Z " /><path fill="rgb(0,0,0)" stroke="rgb(0,0,0)" stroke-width="1" opacity="1" d="M 232.5 109 L 239 113.5 L 240 115.5 L 240 146.5 L 245.5 152 L 265 168.5 L 266 173.5 L 261.5 179 Q 255.5 180 253.5 177 L 227 153.5 L 226 151.5 L 226 114.5 L 229.5 110 L 232.5 109 Z " /><path fill="rgb(0,0,0)" stroke="rgb(0,0,0)" stroke-width="1" opacity="1" d="M 57.5 202 L 135.5 202 L 139 205.5 L 140 210.5 L 136.5 215 L 133.5 216 L 59.5 216 L 54 212.5 L 53 207.5 L 57.5 202 Z " /></svg>